<svg width="513" height="63" viewBox="0 0 513 63" fill="none" xmlns="http://www.w3.org/2000/svg">
<g filter="url(#filter0_d_3_2)">
<path d="M4.712 38.96H7.08C7.37867 40.88 7.93333 42.608 8.744 44.144C9.59733 45.68 10.6427 46.9813 11.88 48.048C13.16 49.1147 14.6107 49.9467 16.232 50.544C17.896 51.0987 19.688 51.376 21.608 51.376C24.7653 51.376 27.2613 50.6293 29.096 49.136C30.9307 47.6427 31.848 45.616 31.848 43.056C31.848 41.9893 31.656 41.008 31.272 40.112C30.9307 39.216 30.3333 38.3627 29.48 37.552C28.6267 36.6987 27.4747 35.8667 26.024 35.056C24.616 34.2453 22.824 33.3707 20.648 32.432C18.0027 31.28 15.784 30.1707 13.992 29.104C12.2 28.0373 10.7707 26.928 9.704 25.776C8.63733 24.624 7.86933 23.408 7.4 22.128C6.97333 20.8053 6.76 19.312 6.76 17.648C6.76 15.6853 7.10133 13.872 7.784 12.208C8.50933 10.544 9.512 9.11466 10.792 7.92C12.072 6.68267 13.5867 5.744 15.336 5.104C17.0853 4.42133 19.0053 4.08 21.096 4.08C22.9733 4.08 24.7227 4.37866 26.344 4.976C27.9653 5.57333 29.608 6.53333 31.272 7.856L32.936 4.976H34.408L35.112 17.712H32.744C31.72 14.2133 30.2267 11.6107 28.264 9.904C26.344 8.19733 24.0187 7.344 21.288 7.344C18.6853 7.344 16.616 7.984 15.08 9.264C13.544 10.544 12.776 12.272 12.776 14.448C12.776 15.472 12.9467 16.4107 13.288 17.264C13.6293 18.0747 14.184 18.864 14.952 19.632C15.72 20.3573 16.7227 21.104 17.96 21.872C19.1973 22.5973 20.7333 23.3653 22.568 24.176C25.7253 25.584 28.3493 26.9067 30.44 28.144C32.5307 29.3387 34.1947 30.5547 35.432 31.792C36.6693 32.9867 37.544 34.2667 38.056 35.632C38.568 36.9547 38.824 38.448 38.824 40.112C38.824 42.2453 38.3973 44.208 37.544 46C36.6907 47.792 35.496 49.328 33.96 50.608C32.424 51.888 30.5893 52.8907 28.456 53.616C26.3227 54.2987 23.976 54.64 21.416 54.64C18.984 54.64 16.7867 54.2987 14.824 53.616C12.904 52.9333 10.9413 51.7813 8.936 50.16L7.144 53.296H5.672L4.712 38.96ZM55.562 43.824C55.562 45.5733 55.6047 46.96 55.69 47.984C55.7753 49.008 55.9887 49.7973 56.33 50.352C56.714 50.864 57.2473 51.2053 57.93 51.376C58.6127 51.5467 59.5727 51.6747 60.81 51.76V54H43.786V51.76C45.0233 51.6747 46.0047 51.5467 46.73 51.376C47.4553 51.2053 48.01 50.864 48.394 50.352C48.778 49.84 49.0127 49.1147 49.098 48.176C49.226 47.1947 49.29 45.8933 49.29 44.272V17.456C49.29 14.9387 49.2473 12.9333 49.162 11.44C49.1193 9.94666 49.0127 8.816 48.842 8.048C48.7567 7.536 48.6073 7.13066 48.394 6.832C48.2233 6.49066 47.946 6.23466 47.562 6.064C47.178 5.85067 46.666 5.70133 46.026 5.616C45.386 5.53067 44.5967 5.488 43.658 5.488V3.312L55.434 0.879997V25.264H55.69C56.33 24.4107 57.1193 23.6427 58.058 22.96C59.0393 22.2347 60.0847 21.616 61.194 21.104C62.3033 20.592 63.4553 20.1867 64.65 19.888C65.8873 19.5893 67.082 19.44 68.234 19.44C70.1967 19.44 71.9887 19.7813 73.61 20.464C75.274 21.1467 76.554 22.064 77.45 23.216C78.1753 24.1973 78.7087 25.4987 79.05 27.12C79.3913 28.6987 79.562 30.8533 79.562 33.584V43.824C79.562 45.5733 79.6047 46.96 79.69 47.984C79.7753 48.9653 79.9887 49.7333 80.33 50.288C80.714 50.8427 81.2473 51.2053 81.93 51.376C82.6127 51.5467 83.5727 51.6747 84.81 51.76V54H67.85V51.76C69.0447 51.7173 70.0047 51.6107 70.73 51.44C71.4553 51.2267 71.9887 50.864 72.33 50.352C72.714 49.84 72.9487 49.1147 73.034 48.176C73.162 47.1947 73.226 45.8933 73.226 44.272V36.208C73.226 31.4293 72.6713 28.0373 71.562 26.032C70.4527 23.984 68.5967 22.96 65.994 22.96C63.9887 22.96 62.154 23.472 60.49 24.496C58.8687 25.52 57.5887 26.928 56.65 28.72C56.4367 29.1893 56.2447 29.6373 56.074 30.064C55.946 30.448 55.8393 30.896 55.754 31.408C55.6687 31.92 55.6047 32.5173 55.562 33.2C55.562 33.84 55.562 34.6507 55.562 35.632V43.824ZM115.945 30.32C115.945 28.5707 115.902 27.2053 115.817 26.224C115.731 25.2 115.497 24.432 115.113 23.92C114.771 23.3653 114.238 23.0027 113.513 22.832C112.83 22.6187 111.87 22.448 110.633 22.32V20.08H122.217V39.728C122.217 42.16 122.238 44.144 122.281 45.68C122.366 47.216 122.473 48.368 122.601 49.136C122.686 49.6907 122.814 50.1387 122.985 50.48C123.198 50.7787 123.497 51.0347 123.881 51.248C124.265 51.4187 124.755 51.5467 125.353 51.632C125.993 51.6747 126.803 51.696 127.785 51.696V53.936L117.225 54.704L116.521 47.024H116.265C114.643 49.6693 112.766 51.6107 110.633 52.848C108.542 54.0427 106.345 54.64 104.041 54.64C102.249 54.64 100.499 54.2987 98.7925 53.616C97.1285 52.9333 95.8698 52.016 95.0165 50.864C94.2912 49.9253 93.7578 48.624 93.4165 46.96C93.1178 45.296 92.9685 43.1413 92.9685 40.496V30.32C92.9685 28.5707 92.9258 27.2053 92.8405 26.224C92.7552 25.2 92.5205 24.432 92.1365 23.92C91.7952 23.3653 91.2618 23.0027 90.5365 22.832C89.8538 22.6187 88.8938 22.448 87.6565 22.32V20.08H99.2405V37.552C99.2405 42.2027 99.7738 45.5733 100.841 47.664C101.95 49.7547 103.699 50.8 106.089 50.8C109.843 50.8 112.766 48.3467 114.857 43.44C115.07 42.928 115.241 42.4587 115.369 42.032C115.497 41.6053 115.603 41.136 115.689 40.624C115.774 40.112 115.838 39.536 115.881 38.896C115.923 38.256 115.945 37.488 115.945 36.592V30.32ZM141.284 40.624C141.284 42.2453 141.518 43.7387 141.988 45.104C142.457 46.4267 143.097 47.5787 143.908 48.56C144.761 49.4987 145.764 50.2453 146.916 50.8C148.11 51.3547 149.39 51.632 150.756 51.632C152.249 51.632 153.593 51.2907 154.788 50.608C156.025 49.9253 157.07 48.9653 157.924 47.728C158.82 46.448 159.502 44.9333 159.972 43.184C160.484 41.392 160.74 39.408 160.74 37.232C160.74 35.056 160.484 33.072 159.972 31.28C159.46 29.4453 158.756 27.888 157.86 26.608C156.964 25.2853 155.876 24.2613 154.596 23.536C153.358 22.8107 151.993 22.448 150.5 22.448C148.75 22.448 147.193 22.8747 145.828 23.728C144.462 24.5387 143.417 25.6907 142.692 27.184C141.753 29.0613 141.284 31.6427 141.284 34.928V40.624ZM141.156 24.624H141.412C142.777 22.832 144.27 21.5307 145.892 20.72C147.556 19.8667 149.476 19.44 151.652 19.44C153.956 19.44 156.089 19.888 158.052 20.784C160.057 21.68 161.785 22.9173 163.236 24.496C164.729 26.0747 165.881 27.952 166.692 30.128C167.545 32.2613 167.972 34.5653 167.972 37.04C167.972 39.5573 167.545 41.904 166.692 44.08C165.838 46.2133 164.665 48.0693 163.172 49.648C161.721 51.2267 159.993 52.464 157.988 53.36C155.982 54.256 153.806 54.704 151.46 54.704C149.028 54.704 146.745 54.256 144.612 53.36C142.521 52.464 140.793 51.248 139.428 49.712L136.42 54H135.012V15.344C135.012 11.0347 134.734 8.28266 134.18 7.088C134.052 6.78933 133.902 6.55467 133.732 6.384C133.561 6.17067 133.305 6 132.964 5.872C132.622 5.70133 132.153 5.552 131.556 5.424C130.958 5.296 130.148 5.168 129.123 5.04V3.44L141.156 0.879997V24.624ZM184.375 43.824C184.375 45.5733 184.417 46.96 184.503 47.984C184.588 49.008 184.801 49.7973 185.143 50.352C185.527 50.864 186.06 51.2053 186.743 51.376C187.425 51.5467 188.385 51.6747 189.623 51.76V54H172.599V51.76C173.836 51.6747 174.817 51.5467 175.543 51.376C176.268 51.2053 176.823 50.864 177.207 50.352C177.591 49.84 177.825 49.1147 177.911 48.176C178.039 47.1947 178.103 45.8933 178.103 44.272V17.456C178.103 14.9387 178.06 12.9333 177.975 11.44C177.932 9.94666 177.825 8.816 177.655 8.048C177.569 7.536 177.42 7.13066 177.207 6.832C177.036 6.49066 176.759 6.23466 176.375 6.064C175.991 5.85067 175.479 5.70133 174.839 5.616C174.199 5.53067 173.409 5.488 172.471 5.488V3.312L184.247 0.879997V25.264H184.503C185.143 24.4107 185.932 23.6427 186.871 22.96C187.852 22.2347 188.897 21.616 190.007 21.104C191.116 20.592 192.268 20.1867 193.463 19.888C194.7 19.5893 195.895 19.44 197.047 19.44C199.009 19.44 200.801 19.7813 202.423 20.464C204.087 21.1467 205.367 22.064 206.263 23.216C206.988 24.1973 207.521 25.4987 207.863 27.12C208.204 28.6987 208.375 30.8533 208.375 33.584V43.824C208.375 45.5733 208.417 46.96 208.503 47.984C208.588 48.9653 208.801 49.7333 209.143 50.288C209.527 50.8427 210.06 51.2053 210.743 51.376C211.425 51.5467 212.385 51.6747 213.623 51.76V54H196.663V51.76C197.857 51.7173 198.817 51.6107 199.543 51.44C200.268 51.2267 200.801 50.864 201.143 50.352C201.527 49.84 201.761 49.1147 201.847 48.176C201.975 47.1947 202.039 45.8933 202.039 44.272V36.208C202.039 31.4293 201.484 28.0373 200.375 26.032C199.265 23.984 197.409 22.96 194.807 22.96C192.801 22.96 190.967 23.472 189.303 24.496C187.681 25.52 186.401 26.928 185.463 28.72C185.249 29.1893 185.057 29.6373 184.887 30.064C184.759 30.448 184.652 30.896 184.567 31.408C184.481 31.92 184.417 32.5173 184.375 33.2C184.375 33.84 184.375 34.6507 184.375 35.632V43.824ZM237.461 35.056C235.029 35.9947 232.96 36.912 231.253 37.808C229.589 38.704 228.245 39.6 227.221 40.496C226.197 41.392 225.45 42.288 224.981 43.184C224.554 44.08 224.341 44.9973 224.341 45.936C224.341 47.344 224.81 48.496 225.749 49.392C226.688 50.288 227.925 50.736 229.461 50.736C230.57 50.736 231.594 50.4587 232.533 49.904C233.514 49.3493 234.368 48.6027 235.093 47.664C235.818 46.6827 236.394 45.552 236.821 44.272C237.248 42.9493 237.461 41.5627 237.461 40.112V35.056ZM237.461 32.304V29.68C237.461 24.4747 235.242 21.872 230.805 21.872C230.08 21.872 229.461 21.936 228.949 22.064C228.437 22.192 228.01 22.4053 227.669 22.704C227.328 23.0027 227.008 23.4293 226.709 23.984C226.453 24.5387 226.197 25.2213 225.941 26.032C225.472 27.2693 225.002 28.1013 224.533 28.528C224.106 28.912 223.466 29.104 222.613 29.104C220.48 29.104 219.413 28.0373 219.413 25.904C219.413 23.856 220.501 22.2773 222.677 21.168C224.853 20.016 227.946 19.44 231.957 19.44C236.224 19.44 239.253 20.208 241.045 21.744C242.837 23.2373 243.733 25.7973 243.733 29.424V43.76C243.733 48.624 244.693 51.056 246.613 51.056C247.21 51.056 247.786 50.992 248.341 50.864C248.896 50.6933 249.365 50.288 249.749 49.648L250.645 51.184C250.133 52.1653 249.194 52.9973 247.829 53.68C246.464 54.32 245.034 54.64 243.541 54.64C241.664 54.64 240.256 54.0427 239.317 52.848C238.421 51.6533 237.973 49.968 237.973 47.792H237.653C236.544 49.8827 235.008 51.5467 233.045 52.784C231.082 53.9787 228.906 54.576 226.517 54.576C223.829 54.576 221.717 53.8933 220.181 52.528C218.645 51.1627 217.877 49.328 217.877 47.024C217.877 46 218.048 45.0187 218.389 44.08C218.773 43.1413 219.37 42.2453 220.181 41.392C220.992 40.5387 222.058 39.7067 223.381 38.896C224.704 38.0427 226.325 37.1893 228.245 36.336L237.461 32.304ZM264.707 43.76C264.707 45.552 264.749 46.96 264.835 47.984C264.92 49.008 265.133 49.7973 265.475 50.352C265.859 50.864 266.392 51.2053 267.075 51.376C267.757 51.5467 268.717 51.6747 269.955 51.76V54H252.931V51.76C254.168 51.6747 255.149 51.5467 255.875 51.376C256.6 51.2053 257.155 50.864 257.539 50.352C257.923 49.84 258.157 49.1147 258.243 48.176C258.371 47.1947 258.435 45.8933 258.435 44.272V36.08C258.435 33.648 258.392 31.6213 258.307 30C258.264 28.3787 258.157 27.2693 257.987 26.672C257.859 26.1173 257.709 25.6907 257.539 25.392C257.368 25.0507 257.091 24.7947 256.707 24.624C256.323 24.4107 255.811 24.2827 255.171 24.24C254.573 24.1547 253.784 24.112 252.803 24.112V21.872L263.235 19.44L264.067 25.84H264.387C266.307 23.664 268.312 22.064 270.403 21.04C272.536 19.9733 274.883 19.44 277.443 19.44C280.131 19.44 282.392 19.9947 284.227 21.104C286.061 22.1707 287.341 23.728 288.067 25.776H288.323C289.901 23.7707 291.821 22.2133 294.083 21.104C296.344 19.9947 298.755 19.44 301.315 19.44C303.32 19.44 305.133 19.7813 306.755 20.464C308.419 21.104 309.677 22 310.531 23.152C311.299 24.1333 311.832 25.4347 312.131 27.056C312.472 28.6347 312.643 30.8107 312.643 33.584V43.76C312.643 45.5093 312.685 46.896 312.771 47.92C312.899 48.944 313.133 49.7333 313.475 50.288C313.816 50.8427 314.328 51.2053 315.011 51.376C315.736 51.5467 316.717 51.6747 317.955 51.76V54H300.931V51.76C302.125 51.7173 303.085 51.6107 303.811 51.44C304.536 51.2267 305.091 50.864 305.475 50.352C305.859 49.7973 306.093 49.0507 306.179 48.112C306.307 47.1733 306.371 45.8933 306.371 44.272V36.208C306.371 33.776 306.243 31.728 305.987 30.064C305.731 28.3573 305.304 26.992 304.707 25.968C304.109 24.9013 303.32 24.1333 302.339 23.664C301.4 23.1947 300.248 22.96 298.883 22.96C297.005 22.96 295.235 23.4933 293.571 24.56C291.949 25.584 290.669 26.9707 289.731 28.72C289.517 29.1467 289.325 29.5733 289.155 30C289.027 30.384 288.92 30.832 288.835 31.344C288.749 31.8133 288.685 32.3893 288.643 33.072C288.643 33.7547 288.643 34.608 288.643 35.632V43.76C288.643 45.5093 288.685 46.896 288.771 47.92C288.856 48.944 289.069 49.7333 289.411 50.288C289.795 50.8427 290.349 51.2053 291.075 51.376C291.8 51.5467 292.781 51.6747 294.019 51.76V54H276.995V51.76C278.189 51.6747 279.149 51.5467 279.875 51.376C280.6 51.2053 281.133 50.864 281.475 50.352C281.859 49.84 282.093 49.1147 282.179 48.176C282.307 47.1947 282.371 45.8933 282.371 44.272V36.208C282.371 33.7333 282.243 31.664 281.987 30C281.731 28.2933 281.304 26.928 280.707 25.904C280.152 24.8373 279.405 24.0907 278.467 23.664C277.528 23.1947 276.376 22.96 275.011 22.96C273.091 22.96 271.277 23.4933 269.571 24.56C267.907 25.584 266.648 26.9707 265.795 28.72C265.581 29.1467 265.389 29.5733 265.219 30C265.091 30.384 264.984 30.832 264.899 31.344C264.813 31.8133 264.749 32.3893 264.707 33.072C264.707 33.7547 264.707 34.608 264.707 35.632V43.76ZM341.337 38.96H343.705C344.004 40.88 344.558 42.608 345.369 44.144C346.222 45.68 347.268 46.9813 348.505 48.048C349.785 49.1147 351.236 49.9467 352.857 50.544C354.521 51.0987 356.313 51.376 358.233 51.376C361.39 51.376 363.886 50.6293 365.721 49.136C367.556 47.6427 368.473 45.616 368.473 43.056C368.473 41.9893 368.281 41.008 367.897 40.112C367.556 39.216 366.958 38.3627 366.105 37.552C365.252 36.6987 364.1 35.8667 362.649 35.056C361.241 34.2453 359.449 33.3707 357.273 32.432C354.628 31.28 352.409 30.1707 350.617 29.104C348.825 28.0373 347.396 26.928 346.329 25.776C345.262 24.624 344.494 23.408 344.025 22.128C343.598 20.8053 343.385 19.312 343.385 17.648C343.385 15.6853 343.726 13.872 344.409 12.208C345.134 10.544 346.137 9.11466 347.417 7.92C348.697 6.68267 350.212 5.744 351.961 5.104C353.71 4.42133 355.63 4.08 357.721 4.08C359.598 4.08 361.348 4.37866 362.969 4.976C364.59 5.57333 366.233 6.53333 367.897 7.856L369.561 4.976H371.033L371.737 17.712H369.369C368.345 14.2133 366.852 11.6107 364.889 9.904C362.969 8.19733 360.644 7.344 357.913 7.344C355.31 7.344 353.241 7.984 351.705 9.264C350.169 10.544 349.401 12.272 349.401 14.448C349.401 15.472 349.572 16.4107 349.913 17.264C350.254 18.0747 350.809 18.864 351.577 19.632C352.345 20.3573 353.348 21.104 354.585 21.872C355.822 22.5973 357.358 23.3653 359.193 24.176C362.35 25.584 364.974 26.9067 367.065 28.144C369.156 29.3387 370.82 30.5547 372.057 31.792C373.294 32.9867 374.169 34.2667 374.681 35.632C375.193 36.9547 375.449 38.448 375.449 40.112C375.449 42.2453 375.022 44.208 374.169 46C373.316 47.792 372.121 49.328 370.585 50.608C369.049 51.888 367.214 52.8907 365.081 53.616C362.948 54.2987 360.601 54.64 358.041 54.64C355.609 54.64 353.412 54.2987 351.449 53.616C349.529 52.9333 347.566 51.7813 345.561 50.16L343.769 53.296H342.297L341.337 38.96ZM381.123 24.112V21.744C383.384 20.4213 385.155 19.0987 386.435 17.776C387.715 16.4533 388.696 14.8747 389.379 13.04H391.235V21.104H399.811V24.112H391.235V43.568C391.235 45.0613 391.299 46.32 391.427 47.344C391.597 48.368 391.853 49.2 392.195 49.84C392.536 50.4373 392.984 50.864 393.539 51.12C394.093 51.376 394.797 51.504 395.651 51.504C396.717 51.504 397.613 51.2907 398.339 50.864C399.107 50.3947 399.853 49.6267 400.579 48.56L402.179 49.776C401.581 51.3547 400.536 52.5707 399.043 53.424C397.592 54.2347 395.779 54.64 393.603 54.64C390.787 54.64 388.632 53.9787 387.139 52.656C385.688 51.2907 384.963 49.3493 384.963 46.832V24.112H381.123ZM423.55 19.44C425.982 19.44 428.286 19.888 430.462 20.784C432.638 21.6373 434.537 22.832 436.158 24.368C437.822 25.904 439.123 27.7387 440.062 29.872C441.043 31.9627 441.534 34.2667 441.534 36.784C441.534 39.3867 441.043 41.776 440.062 43.952C439.123 46.128 437.822 48.0053 436.158 49.584C434.537 51.1627 432.638 52.4 430.462 53.296C428.286 54.192 425.982 54.64 423.55 54.64C421.161 54.64 418.878 54.2133 416.702 53.36C414.569 52.464 412.691 51.2267 411.07 49.648C409.449 48.0693 408.169 46.192 407.23 44.016C406.291 41.7973 405.822 39.3867 405.822 36.784C405.822 34.2667 406.291 31.9413 407.23 29.808C408.169 27.6747 409.449 25.84 411.07 24.304C412.691 22.768 414.569 21.5733 416.702 20.72C418.878 19.8667 421.161 19.44 423.55 19.44ZM423.55 22.512C421.971 22.512 420.521 22.8533 419.198 23.536C417.918 24.2187 416.809 25.2 415.87 26.48C414.974 27.7173 414.27 29.232 413.758 31.024C413.289 32.7733 413.054 34.7147 413.054 36.848C413.054 39.0667 413.289 41.072 413.758 42.864C414.27 44.656 414.974 46.192 415.87 47.472C416.809 48.7093 417.918 49.6693 419.198 50.352C420.478 51.0347 421.929 51.376 423.55 51.376C425.171 51.376 426.643 51.0347 427.966 50.352C429.289 49.6693 430.419 48.688 431.358 47.408C432.297 46.128 433.022 44.592 433.534 42.8C434.046 41.008 434.302 39.024 434.302 36.848C434.302 34.7147 434.046 32.7733 433.534 31.024C433.022 29.2747 432.297 27.7813 431.358 26.544C430.419 25.264 429.289 24.2827 427.966 23.6C426.643 22.8747 425.171 22.512 423.55 22.512ZM458.833 43.824C458.833 45.5733 458.876 46.96 458.961 47.984C459.046 49.008 459.26 49.7973 459.601 50.352C459.985 50.864 460.518 51.2053 461.201 51.376C461.884 51.5467 462.844 51.6747 464.081 51.76V54H447.057V51.76C448.294 51.7173 449.276 51.6107 450.001 51.44C450.726 51.2267 451.281 50.864 451.665 50.352C452.049 49.84 452.284 49.1147 452.369 48.176C452.497 47.1947 452.561 45.8933 452.561 44.272V36.784C452.561 33.8827 452.518 31.6213 452.433 30C452.39 28.3787 452.177 27.184 451.793 26.416C451.452 25.648 450.897 25.2 450.129 25.072C449.361 24.9013 448.294 24.816 446.929 24.816V22.576L458.129 20.144L459.025 28.08H459.281C459.836 26.8 460.518 25.6267 461.329 24.56C462.182 23.4933 463.1 22.5973 464.081 21.872C465.062 21.104 466.086 20.5067 467.153 20.08C468.22 19.6533 469.308 19.44 470.417 19.44C471.782 19.44 472.849 19.7813 473.617 20.464C474.428 21.104 474.833 21.9787 474.833 23.088C474.833 24.112 474.513 24.9227 473.873 25.52C473.233 26.0747 472.316 26.352 471.121 26.352C470.438 26.352 469.862 26.2667 469.393 26.096C468.924 25.9253 468.497 25.7547 468.113 25.584C467.772 25.3707 467.43 25.1787 467.089 25.008C466.79 24.8373 466.449 24.752 466.065 24.752C464.913 24.752 463.761 25.4987 462.609 26.992C461.457 28.4427 460.561 30.2987 459.921 32.56C459.58 33.7973 459.302 35.2053 459.089 36.784C458.918 38.32 458.833 39.9413 458.833 41.648V43.824ZM507.846 48.048C504.219 52.4427 499.718 54.64 494.342 54.64C491.824 54.64 489.542 54.2347 487.494 53.424C485.446 52.5707 483.675 51.3973 482.182 49.904C480.731 48.368 479.6 46.5547 478.79 44.464C477.979 42.3307 477.574 39.984 477.574 37.424C477.574 34.8213 478 32.4107 478.854 30.192C479.707 27.9733 480.902 26.0747 482.438 24.496C484.016 22.9173 485.872 21.68 488.006 20.784C490.182 19.888 492.55 19.44 495.11 19.44C499.248 19.44 502.448 20.5707 504.71 22.832C506.971 25.0507 508.102 28.2507 508.102 32.432C508.102 33.0293 507.974 33.392 507.718 33.52C507.504 33.648 506.971 33.712 506.118 33.712H485.062C484.976 34.0533 484.912 34.48 484.87 34.992C484.827 35.4613 484.806 35.9947 484.806 36.592C484.806 38.8107 485.062 40.8373 485.574 42.672C486.128 44.464 486.896 46 487.878 47.28C488.902 48.56 490.096 49.5627 491.462 50.288C492.87 50.9707 494.427 51.312 496.134 51.312C497.926 51.312 499.59 50.928 501.126 50.16C502.662 49.3493 504.24 48.048 505.862 46.256L507.846 48.048ZM497.286 30.768C498.139 30.768 498.822 30.7467 499.334 30.704C499.846 30.6613 500.23 30.576 500.486 30.448C500.742 30.32 500.912 30.1493 500.998 29.936C501.083 29.68 501.126 29.36 501.126 28.976C501.126 27.0133 500.486 25.456 499.206 24.304C497.968 23.1093 496.262 22.512 494.086 22.512C489.478 22.512 486.619 25.264 485.51 30.768H497.286Z" fill="white"/>
</g>
<defs>
<filter id="filter0_d_3_2" x="0.711975" y="0.879997" width="511.39" height="61.824" filterUnits="userSpaceOnUse" color-interpolation-filters="sRGB">
<feFlood flood-opacity="0" result="BackgroundImageFix"/>
<feColorMatrix in="SourceAlpha" type="matrix" values="0 0 0 0 0 0 0 0 0 0 0 0 0 0 0 0 0 0 127 0" result="hardAlpha"/>
<feOffset dy="4"/>
<feGaussianBlur stdDeviation="2"/>
<feComposite in2="hardAlpha" operator="out"/>
<feColorMatrix type="matrix" values="0 0 0 0 0 0 0 0 0 0 0 0 0 0 0 0 0 0 0.25 0"/>
<feBlend mode="normal" in2="BackgroundImageFix" result="effect1_dropShadow_3_2"/>
<feBlend mode="normal" in="SourceGraphic" in2="effect1_dropShadow_3_2" result="shape"/>
</filter>
</defs>
</svg>
