<svg width="1590" height="79" viewBox="0 0 1590 79" fill="none" xmlns="http://www.w3.org/2000/svg">
<g filter="url(#filter0_d_3_2)">
<path d="M31.272 4.08C35.0267 4.08 38.5253 4.74133 41.768 6.064C45.0107 7.38666 47.8267 9.2 50.216 11.504C52.6053 13.808 54.4827 16.5173 55.848 19.632C57.2133 22.7467 57.896 26.1173 57.896 29.744C57.896 33.2 57.192 36.4427 55.784 39.472C54.4187 42.5013 52.5413 45.1467 50.152 47.408C47.7627 49.6267 44.9467 51.3973 41.704 52.72C38.4613 54 34.984 54.64 31.272 54.64C27.56 54.64 24.0827 54 20.84 52.72C17.5973 51.3973 14.7813 49.6267 12.392 47.408C10.0027 45.1467 8.104 42.5013 6.696 39.472C5.33067 36.4427 4.648 33.2 4.648 29.744C4.648 26.1173 5.33067 22.7467 6.696 19.632C8.06133 16.5173 9.93867 13.808 12.328 11.504C14.7173 9.2 17.5333 7.38666 20.776 6.064C24.0187 4.74133 27.5173 4.08 31.272 4.08ZM31.272 51.12C34.088 51.12 36.6053 50.6293 38.824 49.648C41.0853 48.6667 43.0053 47.2587 44.584 45.424C46.2053 43.5893 47.4427 41.3707 48.296 38.768C49.1493 36.1227 49.576 33.1787 49.576 29.936C49.576 26.5227 49.1493 23.4507 48.296 20.72C47.4427 17.9467 46.2267 15.6 44.648 13.68C43.0693 11.7173 41.1493 10.224 38.888 9.2C36.6267 8.13333 34.088 7.6 31.272 7.6C28.456 7.6 25.9173 8.13333 23.656 9.2C21.3947 10.224 19.4747 11.7173 17.896 13.68C16.3173 15.6 15.1013 17.9467 14.248 20.72C13.3947 23.4507 12.968 26.5227 12.968 29.936C12.968 33.1787 13.3947 36.1227 14.248 38.768C15.1013 41.3707 16.3173 43.5893 17.896 45.424C19.4747 47.2587 21.3947 48.6667 23.656 49.648C25.9173 50.6293 28.456 51.12 31.272 51.12ZM75.7705 43.824C75.7705 45.5733 75.8132 46.96 75.8985 47.984C75.9838 49.008 76.1972 49.7973 76.5385 50.352C76.9225 50.864 77.4558 51.2053 78.1385 51.376C78.8212 51.5467 79.7812 51.6747 81.0185 51.76V54H63.9945V51.76C65.2318 51.7173 66.2132 51.6107 66.9385 51.44C67.6638 51.2267 68.2185 50.864 68.6025 50.352C68.9865 49.84 69.2212 49.1147 69.3065 48.176C69.4345 47.1947 69.4985 45.8933 69.4985 44.272V36.784C69.4985 33.8827 69.4558 31.6213 69.3705 30C69.3278 28.3787 69.1145 27.184 68.7305 26.416C68.3892 25.648 67.8345 25.2 67.0665 25.072C66.2985 24.9013 65.2318 24.816 63.8665 24.816V22.576L75.0665 20.144L75.9625 28.08H76.2185C76.7732 26.8 77.4558 25.6267 78.2665 24.56C79.1198 23.4933 80.0372 22.5973 81.0185 21.872C81.9998 21.104 83.0238 20.5067 84.0905 20.08C85.1572 19.6533 86.2452 19.44 87.3545 19.44C88.7198 19.44 89.7865 19.7813 90.5545 20.464C91.3652 21.104 91.7705 21.9787 91.7705 23.088C91.7705 24.112 91.4505 24.9227 90.8105 25.52C90.1705 26.0747 89.2532 26.352 88.0585 26.352C87.3758 26.352 86.7998 26.2667 86.3305 26.096C85.8612 25.9253 85.4345 25.7547 85.0505 25.584C84.7092 25.3707 84.3678 25.1787 84.0265 25.008C83.7278 24.8373 83.3865 24.752 83.0025 24.752C81.8505 24.752 80.6985 25.4987 79.5465 26.992C78.3945 28.4427 77.4985 30.2987 76.8585 32.56C76.5172 33.7973 76.2398 35.2053 76.0265 36.784C75.8558 38.32 75.7705 39.9413 75.7705 41.648V43.824ZM122.414 48.624H122.158C120.622 50.8 118.979 52.3573 117.23 53.296C115.523 54.192 113.496 54.64 111.15 54.64C108.718 54.64 106.478 54.2133 104.43 53.36C102.424 52.464 100.675 51.248 99.1815 49.712C97.7308 48.1333 96.5788 46.256 95.7255 44.08C94.9148 41.904 94.5095 39.536 94.5095 36.976C94.5095 34.4587 94.9148 32.1333 95.7255 30C96.5788 27.824 97.7308 25.968 99.1815 24.432C100.675 22.8533 102.446 21.6373 104.494 20.784C106.542 19.888 108.76 19.44 111.15 19.44C113.198 19.44 115.011 19.7813 116.59 20.464C118.211 21.1467 119.768 22.2347 121.262 23.728V17.2C121.262 14.768 121.219 12.7413 121.134 11.12C121.091 9.49867 121.006 8.38933 120.878 7.792C120.664 6.85333 120.067 6.192 119.086 5.808C118.104 5.424 116.504 5.232 114.286 5.232V3.312L127.406 0.879997V37.808C127.406 40.752 127.427 43.184 127.47 45.104C127.512 46.9813 127.64 48.3253 127.854 49.136C127.982 49.648 128.131 50.0747 128.302 50.416C128.515 50.7573 128.792 51.0347 129.134 51.248C129.518 51.4187 130.008 51.5467 130.606 51.632C131.246 51.7173 132.056 51.76 133.038 51.76V53.936L122.414 54.64V48.624ZM121.134 34.48C121.134 32.2613 121.006 30.576 120.75 29.424C120.536 28.272 120.088 27.2693 119.406 26.416C118.424 25.136 117.166 24.176 115.63 23.536C114.136 22.8533 112.643 22.512 111.15 22.512C108.078 22.512 105.731 23.792 104.11 26.352C102.531 28.8693 101.742 32.304 101.742 36.656C101.742 38.9173 101.934 40.9653 102.318 42.8C102.744 44.6347 103.342 46.2133 104.11 47.536C104.92 48.816 105.902 49.8187 107.054 50.544C108.248 51.2267 109.614 51.568 111.15 51.568C111.918 51.568 112.686 51.4827 113.454 51.312C114.264 51.1413 115.032 50.8853 115.758 50.544C116.526 50.16 117.23 49.7333 117.87 49.264C118.51 48.752 119.043 48.176 119.47 47.536C120.067 46.5973 120.494 45.4667 120.75 44.144C121.006 42.8213 121.134 41.008 121.134 38.704V34.48ZM168.033 48.048C164.406 52.4427 159.905 54.64 154.529 54.64C152.012 54.64 149.729 54.2347 147.681 53.424C145.633 52.5707 143.862 51.3973 142.369 49.904C140.918 48.368 139.788 46.5547 138.977 44.464C138.166 42.3307 137.761 39.984 137.761 37.424C137.761 34.8213 138.188 32.4107 139.041 30.192C139.894 27.9733 141.089 26.0747 142.625 24.496C144.204 22.9173 146.06 21.68 148.193 20.784C150.369 19.888 152.737 19.44 155.297 19.44C159.436 19.44 162.636 20.5707 164.897 22.832C167.158 25.0507 168.289 28.2507 168.289 32.432C168.289 33.0293 168.161 33.392 167.905 33.52C167.692 33.648 167.158 33.712 166.305 33.712H145.249C145.164 34.0533 145.1 34.48 145.057 34.992C145.014 35.4613 144.993 35.9947 144.993 36.592C144.993 38.8107 145.249 40.8373 145.761 42.672C146.316 44.464 147.084 46 148.065 47.28C149.089 48.56 150.284 49.5627 151.649 50.288C153.057 50.9707 154.614 51.312 156.321 51.312C158.113 51.312 159.777 50.928 161.313 50.16C162.849 49.3493 164.428 48.048 166.049 46.256L168.033 48.048ZM157.473 30.768C158.326 30.768 159.009 30.7467 159.521 30.704C160.033 30.6613 160.417 30.576 160.673 30.448C160.929 30.32 161.1 30.1493 161.185 29.936C161.27 29.68 161.313 29.36 161.313 28.976C161.313 27.0133 160.673 25.456 159.393 24.304C158.156 23.1093 156.449 22.512 154.273 22.512C149.665 22.512 146.806 25.264 145.697 30.768H157.473ZM185.521 43.824C185.521 45.5733 185.563 46.96 185.649 47.984C185.734 49.008 185.947 49.7973 186.289 50.352C186.673 50.864 187.206 51.2053 187.889 51.376C188.571 51.5467 189.531 51.6747 190.769 51.76V54H173.745V51.76C174.982 51.7173 175.963 51.6107 176.689 51.44C177.414 51.2267 177.969 50.864 178.353 50.352C178.737 49.84 178.971 49.1147 179.057 48.176C179.185 47.1947 179.249 45.8933 179.249 44.272V36.784C179.249 33.8827 179.206 31.6213 179.121 30C179.078 28.3787 178.865 27.184 178.481 26.416C178.139 25.648 177.585 25.2 176.817 25.072C176.049 24.9013 174.982 24.816 173.617 24.816V22.576L184.817 20.144L185.713 28.08H185.969C186.523 26.8 187.206 25.6267 188.017 24.56C188.87 23.4933 189.787 22.5973 190.769 21.872C191.75 21.104 192.774 20.5067 193.841 20.08C194.907 19.6533 195.995 19.44 197.105 19.44C198.47 19.44 199.537 19.7813 200.305 20.464C201.115 21.104 201.521 21.9787 201.521 23.088C201.521 24.112 201.201 24.9227 200.561 25.52C199.921 26.0747 199.003 26.352 197.809 26.352C197.126 26.352 196.55 26.2667 196.081 26.096C195.611 25.9253 195.185 25.7547 194.801 25.584C194.459 25.3707 194.118 25.1787 193.777 25.008C193.478 24.8373 193.137 24.752 192.753 24.752C191.601 24.752 190.449 25.4987 189.297 26.992C188.145 28.4427 187.249 30.2987 186.609 32.56C186.267 33.7973 185.99 35.2053 185.777 36.784C185.606 38.32 185.521 39.9413 185.521 41.648V43.824ZM249.476 48.624H249.22C247.684 50.8 246.041 52.3573 244.292 53.296C242.585 54.192 240.559 54.64 238.212 54.64C235.78 54.64 233.54 54.2133 231.492 53.36C229.487 52.464 227.737 51.248 226.244 49.712C224.793 48.1333 223.641 46.256 222.788 44.08C221.977 41.904 221.572 39.536 221.572 36.976C221.572 34.4587 221.977 32.1333 222.788 30C223.641 27.824 224.793 25.968 226.244 24.432C227.737 22.8533 229.508 21.6373 231.556 20.784C233.604 19.888 235.823 19.44 238.212 19.44C240.26 19.44 242.073 19.7813 243.652 20.464C245.273 21.1467 246.831 22.2347 248.324 23.728V17.2C248.324 14.768 248.281 12.7413 248.196 11.12C248.153 9.49867 248.068 8.38933 247.94 7.792C247.727 6.85333 247.129 6.192 246.148 5.808C245.167 5.424 243.567 5.232 241.348 5.232V3.312L254.468 0.879997V37.808C254.468 40.752 254.489 43.184 254.532 45.104C254.575 46.9813 254.703 48.3253 254.916 49.136C255.044 49.648 255.193 50.0747 255.364 50.416C255.577 50.7573 255.855 51.0347 256.196 51.248C256.58 51.4187 257.071 51.5467 257.668 51.632C258.308 51.7173 259.119 51.76 260.1 51.76V53.936L249.476 54.64V48.624ZM248.196 34.48C248.196 32.2613 248.068 30.576 247.812 29.424C247.599 28.272 247.151 27.2693 246.468 26.416C245.487 25.136 244.228 24.176 242.692 23.536C241.199 22.8533 239.705 22.512 238.212 22.512C235.14 22.512 232.793 23.792 231.172 26.352C229.593 28.8693 228.804 32.304 228.804 36.656C228.804 38.9173 228.996 40.9653 229.38 42.8C229.807 44.6347 230.404 46.2133 231.172 47.536C231.983 48.816 232.964 49.8187 234.116 50.544C235.311 51.2267 236.676 51.568 238.212 51.568C238.98 51.568 239.748 51.4827 240.516 51.312C241.327 51.1413 242.095 50.8853 242.82 50.544C243.588 50.16 244.292 49.7333 244.932 49.264C245.572 48.752 246.105 48.176 246.532 47.536C247.129 46.5973 247.556 45.4667 247.812 44.144C248.068 42.8213 248.196 41.008 248.196 38.704V34.48ZM284.024 35.056C281.592 35.9947 279.522 36.912 277.816 37.808C276.152 38.704 274.808 39.6 273.784 40.496C272.76 41.392 272.013 42.288 271.544 43.184C271.117 44.08 270.904 44.9973 270.904 45.936C270.904 47.344 271.373 48.496 272.312 49.392C273.25 50.288 274.488 50.736 276.024 50.736C277.133 50.736 278.157 50.4587 279.096 49.904C280.077 49.3493 280.93 48.6027 281.656 47.664C282.381 46.6827 282.957 45.552 283.384 44.272C283.81 42.9493 284.024 41.5627 284.024 40.112V35.056ZM284.024 32.304V29.68C284.024 24.4747 281.805 21.872 277.368 21.872C276.642 21.872 276.024 21.936 275.512 22.064C275 22.192 274.573 22.4053 274.232 22.704C273.89 23.0027 273.57 23.4293 273.272 23.984C273.016 24.5387 272.76 25.2213 272.504 26.032C272.034 27.2693 271.565 28.1013 271.095 28.528C270.669 28.912 270.029 29.104 269.176 29.104C267.042 29.104 265.976 28.0373 265.976 25.904C265.976 23.856 267.064 22.2773 269.24 21.168C271.416 20.016 274.509 19.44 278.52 19.44C282.786 19.44 285.816 20.208 287.608 21.744C289.4 23.2373 290.296 25.7973 290.296 29.424V43.76C290.296 48.624 291.256 51.056 293.176 51.056C293.773 51.056 294.349 50.992 294.904 50.864C295.458 50.6933 295.928 50.288 296.312 49.648L297.208 51.184C296.696 52.1653 295.757 52.9973 294.392 53.68C293.026 54.32 291.597 54.64 290.104 54.64C288.226 54.64 286.818 54.0427 285.88 52.848C284.984 51.6533 284.536 49.968 284.536 47.792H284.216C283.106 49.8827 281.57 51.5467 279.608 52.784C277.645 53.9787 275.469 54.576 273.08 54.576C270.392 54.576 268.28 53.8933 266.744 52.528C265.208 51.1627 264.44 49.328 264.44 47.024C264.44 46 264.61 45.0187 264.952 44.08C265.336 43.1413 265.933 42.2453 266.744 41.392C267.554 40.5387 268.621 39.7067 269.944 38.896C271.266 38.0427 272.888 37.1893 274.808 36.336L284.024 32.304ZM311.717 43.824C311.717 45.488 311.781 46.832 311.909 47.856C312.08 48.8373 312.378 49.6267 312.805 50.224C313.232 50.7787 313.829 51.1627 314.597 51.376C315.365 51.5893 316.389 51.7173 317.669 51.76V54H299.301V51.76C300.581 51.7173 301.626 51.5893 302.437 51.376C303.248 51.12 303.866 50.736 304.293 50.224C304.762 49.6693 305.061 48.9227 305.189 47.984C305.36 47.0027 305.445 45.7653 305.445 44.272V36.08C305.445 33.6053 305.402 31.5787 305.317 30C305.274 28.3787 305.168 27.2693 304.997 26.672C304.784 25.6907 304.293 25.0293 303.525 24.688C302.757 24.304 301.306 24.112 299.173 24.112V21.872L311.717 19.44V43.824ZM304.357 6.448C304.357 5.33866 304.741 4.4 305.509 3.632C306.277 2.864 307.216 2.48 308.325 2.48C309.434 2.48 310.373 2.864 311.141 3.632C311.909 4.4 312.293 5.33866 312.293 6.448C312.293 7.55733 311.909 8.496 311.141 9.264C310.373 10.032 309.434 10.416 308.325 10.416C307.216 10.416 306.277 10.032 305.509 9.264C304.741 8.496 304.357 7.55733 304.357 6.448ZM333.146 43.824C333.146 45.5733 333.188 46.96 333.274 47.984C333.359 49.008 333.572 49.7973 333.914 50.352C334.298 50.864 334.831 51.2053 335.514 51.376C336.196 51.5467 337.156 51.6747 338.394 51.76V54H321.37V51.76C322.607 51.7173 323.588 51.6107 324.314 51.44C325.039 51.2267 325.594 50.864 325.978 50.352C326.362 49.84 326.596 49.1147 326.682 48.176C326.81 47.1947 326.874 45.8933 326.874 44.272V36.784C326.874 33.8827 326.831 31.6213 326.746 30C326.703 28.3787 326.49 27.184 326.106 26.416C325.764 25.648 325.21 25.2 324.442 25.072C323.674 24.9013 322.607 24.816 321.242 24.816V22.576L332.442 20.144L333.338 28.08H333.594C334.148 26.8 334.831 25.6267 335.642 24.56C336.495 23.4933 337.412 22.5973 338.394 21.872C339.375 21.104 340.399 20.5067 341.466 20.08C342.532 19.6533 343.62 19.44 344.73 19.44C346.095 19.44 347.162 19.7813 347.93 20.464C348.74 21.104 349.146 21.9787 349.146 23.088C349.146 24.112 348.826 24.9227 348.186 25.52C347.546 26.0747 346.628 26.352 345.434 26.352C344.751 26.352 344.175 26.2667 343.706 26.096C343.236 25.9253 342.81 25.7547 342.426 25.584C342.084 25.3707 341.743 25.1787 341.402 25.008C341.103 24.8373 340.762 24.752 340.378 24.752C339.226 24.752 338.074 25.4987 336.922 26.992C335.77 28.4427 334.874 30.2987 334.234 32.56C333.892 33.7973 333.615 35.2053 333.402 36.784C333.231 38.32 333.146 39.9413 333.146 41.648V43.824ZM367.422 64.048C365.459 68.4427 362.408 70.64 358.27 70.64C355.582 70.64 354.238 69.6373 354.238 67.632C354.238 66.5653 354.6 65.776 355.326 65.264C356.094 64.7947 357.48 64.3893 359.486 64.048C360.382 63.92 361.15 63.728 361.79 63.472C362.43 63.2587 363.006 62.96 363.518 62.576C364.03 62.2347 364.478 61.7867 364.862 61.232C365.288 60.6773 365.694 59.9947 366.078 59.184L368.318 54.704L356.03 28.016C355.475 26.8213 354.984 25.8827 354.558 25.2C354.174 24.4747 353.747 23.92 353.278 23.536C352.851 23.1093 352.36 22.832 351.806 22.704C351.251 22.5333 350.547 22.4053 349.694 22.32V20.08H366.654V22.32C363.795 22.32 362.366 23.024 362.366 24.432C362.366 24.9867 362.536 25.8613 362.878 27.056C363.219 28.2507 363.646 29.4667 364.158 30.704L371.198 47.728H371.518L377.342 33.328C377.896 31.92 378.344 30.768 378.686 29.872C379.07 28.976 379.347 28.2507 379.518 27.696C379.731 27.0987 379.859 26.608 379.902 26.224C379.987 25.84 380.03 25.4773 380.03 25.136C380.03 24.0267 379.71 23.28 379.07 22.896C378.472 22.512 377.299 22.32 375.55 22.32V20.08H389.63V22.32C388.819 22.32 388.136 22.4267 387.582 22.64C387.027 22.8533 386.451 23.344 385.854 24.112C385.299 24.8373 384.659 25.904 383.934 27.312C383.251 28.72 382.398 30.6187 381.374 33.008L367.422 64.048ZM420.19 24.688H420.446C421.811 23.0667 423.283 21.7867 424.862 20.848C426.441 19.9093 428.275 19.44 430.366 19.44C432.798 19.44 435.017 19.888 437.022 20.784C439.07 21.6373 440.841 22.8533 442.334 24.432C443.827 26.0107 444.979 27.888 445.79 30.064C446.643 32.1973 447.07 34.544 447.07 37.104C447.07 39.7067 446.643 42.096 445.79 44.272C444.937 46.4053 443.763 48.24 442.27 49.776C440.777 51.312 439.006 52.5067 436.958 53.36C434.91 54.2133 432.691 54.64 430.302 54.64C428.339 54.64 426.547 54.32 424.926 53.68C423.347 52.9973 421.854 51.9093 420.446 50.416V59.76C420.446 61.4667 420.531 62.832 420.702 63.856C420.873 64.88 421.214 65.6693 421.726 66.224C422.238 66.7787 422.963 67.1627 423.902 67.376C424.883 67.5893 426.163 67.7173 427.742 67.76V70H408.03V67.76C409.31 67.7173 410.334 67.5893 411.102 67.376C411.913 67.1627 412.531 66.7787 412.958 66.224C413.427 65.6693 413.747 64.9013 413.918 63.92C414.089 62.9813 414.174 61.744 414.174 60.208V36.272C414.174 33.7973 414.131 31.7707 414.046 30.192C414.003 28.6133 413.897 27.5253 413.726 26.928C413.513 25.904 413.022 25.2213 412.254 24.88C411.486 24.496 410.035 24.304 407.902 24.304V22.128L420.19 19.696V24.688ZM422.11 26.544C421.555 27.3973 421.129 28.4213 420.83 29.616C420.574 30.768 420.446 32.2827 420.446 34.16V39.152C420.446 40.304 420.467 41.3067 420.51 42.16C420.595 42.9707 420.702 43.6747 420.83 44.272C420.958 44.8693 421.129 45.4027 421.342 45.872C421.555 46.3413 421.833 46.7893 422.174 47.216C423.155 48.5813 424.329 49.648 425.694 50.416C427.059 51.1413 428.489 51.504 429.982 51.504C432.926 51.504 435.294 50.2667 437.086 47.792C438.921 45.3173 439.838 41.84 439.838 37.36C439.838 35.1413 439.582 33.136 439.07 31.344C438.601 29.5093 437.918 27.952 437.022 26.672C436.126 25.3493 435.038 24.3253 433.758 23.6C432.521 22.8747 431.134 22.512 429.598 22.512C428.062 22.512 426.633 22.8747 425.31 23.6C424.03 24.2827 422.963 25.264 422.11 26.544ZM464.396 43.824C464.396 45.5733 464.438 46.96 464.524 47.984C464.609 49.008 464.822 49.7973 465.164 50.352C465.548 50.864 466.081 51.2053 466.764 51.376C467.446 51.5467 468.406 51.6747 469.644 51.76V54H452.62V51.76C453.857 51.7173 454.838 51.6107 455.564 51.44C456.289 51.2267 456.844 50.864 457.228 50.352C457.612 49.84 457.846 49.1147 457.932 48.176C458.06 47.1947 458.124 45.8933 458.124 44.272V36.784C458.124 33.8827 458.081 31.6213 457.996 30C457.953 28.3787 457.74 27.184 457.356 26.416C457.014 25.648 456.46 25.2 455.692 25.072C454.924 24.9013 453.857 24.816 452.492 24.816V22.576L463.692 20.144L464.588 28.08H464.844C465.398 26.8 466.081 25.6267 466.892 24.56C467.745 23.4933 468.662 22.5973 469.644 21.872C470.625 21.104 471.649 20.5067 472.716 20.08C473.782 19.6533 474.87 19.44 475.98 19.44C477.345 19.44 478.412 19.7813 479.18 20.464C479.99 21.104 480.396 21.9787 480.396 23.088C480.396 24.112 480.076 24.9227 479.436 25.52C478.796 26.0747 477.878 26.352 476.684 26.352C476.001 26.352 475.425 26.2667 474.956 26.096C474.486 25.9253 474.06 25.7547 473.676 25.584C473.334 25.3707 472.993 25.1787 472.652 25.008C472.353 24.8373 472.012 24.752 471.628 24.752C470.476 24.752 469.324 25.4987 468.172 26.992C467.02 28.4427 466.124 30.2987 465.484 32.56C465.142 33.7973 464.865 35.2053 464.652 36.784C464.481 38.32 464.396 39.9413 464.396 41.648V43.824ZM500.8 19.44C503.232 19.44 505.536 19.888 507.712 20.784C509.888 21.6373 511.787 22.832 513.408 24.368C515.072 25.904 516.373 27.7387 517.312 29.872C518.293 31.9627 518.784 34.2667 518.784 36.784C518.784 39.3867 518.293 41.776 517.312 43.952C516.373 46.128 515.072 48.0053 513.408 49.584C511.787 51.1627 509.888 52.4 507.712 53.296C505.536 54.192 503.232 54.64 500.8 54.64C498.411 54.64 496.128 54.2133 493.952 53.36C491.819 52.464 489.941 51.2267 488.32 49.648C486.699 48.0693 485.419 46.192 484.48 44.016C483.541 41.7973 483.072 39.3867 483.072 36.784C483.072 34.2667 483.541 31.9413 484.48 29.808C485.419 27.6747 486.699 25.84 488.32 24.304C489.941 22.768 491.819 21.5733 493.952 20.72C496.128 19.8667 498.411 19.44 500.8 19.44ZM500.8 22.512C499.221 22.512 497.771 22.8533 496.448 23.536C495.168 24.2187 494.059 25.2 493.12 26.48C492.224 27.7173 491.52 29.232 491.008 31.024C490.539 32.7733 490.304 34.7147 490.304 36.848C490.304 39.0667 490.539 41.072 491.008 42.864C491.52 44.656 492.224 46.192 493.12 47.472C494.059 48.7093 495.168 49.6693 496.448 50.352C497.728 51.0347 499.179 51.376 500.8 51.376C502.421 51.376 503.893 51.0347 505.216 50.352C506.539 49.6693 507.669 48.688 508.608 47.408C509.547 46.128 510.272 44.592 510.784 42.8C511.296 41.008 511.552 39.024 511.552 36.848C511.552 34.7147 511.296 32.7733 510.784 31.024C510.272 29.2747 509.547 27.7813 508.608 26.544C507.669 25.264 506.539 24.2827 505.216 23.6C503.893 22.8747 502.421 22.512 500.8 22.512ZM552.851 48.624H552.595C551.059 50.8 549.416 52.3573 547.667 53.296C545.96 54.192 543.934 54.64 541.587 54.64C539.155 54.64 536.915 54.2133 534.867 53.36C532.862 52.464 531.112 51.248 529.619 49.712C528.168 48.1333 527.016 46.256 526.163 44.08C525.352 41.904 524.947 39.536 524.947 36.976C524.947 34.4587 525.352 32.1333 526.163 30C527.016 27.824 528.168 25.968 529.619 24.432C531.112 22.8533 532.883 21.6373 534.931 20.784C536.979 19.888 539.198 19.44 541.587 19.44C543.635 19.44 545.448 19.7813 547.027 20.464C548.648 21.1467 550.206 22.2347 551.699 23.728V17.2C551.699 14.768 551.656 12.7413 551.571 11.12C551.528 9.49867 551.443 8.38933 551.315 7.792C551.102 6.85333 550.504 6.192 549.523 5.808C548.542 5.424 546.942 5.232 544.723 5.232V3.312L557.843 0.879997V37.808C557.843 40.752 557.864 43.184 557.907 45.104C557.95 46.9813 558.078 48.3253 558.291 49.136C558.419 49.648 558.568 50.0747 558.739 50.416C558.952 50.7573 559.23 51.0347 559.571 51.248C559.955 51.4187 560.446 51.5467 561.043 51.632C561.683 51.7173 562.494 51.76 563.475 51.76V53.936L552.851 54.64V48.624ZM551.571 34.48C551.571 32.2613 551.443 30.576 551.187 29.424C550.974 28.272 550.526 27.2693 549.843 26.416C548.862 25.136 547.603 24.176 546.067 23.536C544.574 22.8533 543.08 22.512 541.587 22.512C538.515 22.512 536.168 23.792 534.547 26.352C532.968 28.8693 532.179 32.304 532.179 36.656C532.179 38.9173 532.371 40.9653 532.755 42.8C533.182 44.6347 533.779 46.2133 534.547 47.536C535.358 48.816 536.339 49.8187 537.491 50.544C538.686 51.2267 540.051 51.568 541.587 51.568C542.355 51.568 543.123 51.4827 543.891 51.312C544.702 51.1413 545.47 50.8853 546.195 50.544C546.963 50.16 547.667 49.7333 548.307 49.264C548.947 48.752 549.48 48.176 549.907 47.536C550.504 46.5973 550.931 45.4667 551.187 44.144C551.443 42.8213 551.571 41.008 551.571 38.704V34.48ZM594.695 30.32C594.695 28.5707 594.652 27.2053 594.567 26.224C594.481 25.2 594.247 24.432 593.863 23.92C593.521 23.3653 592.988 23.0027 592.263 22.832C591.58 22.6187 590.62 22.448 589.383 22.32V20.08H600.967V39.728C600.967 42.16 600.988 44.144 601.031 45.68C601.116 47.216 601.223 48.368 601.351 49.136C601.436 49.6907 601.564 50.1387 601.735 50.48C601.948 50.7787 602.247 51.0347 602.631 51.248C603.015 51.4187 603.505 51.5467 604.103 51.632C604.743 51.6747 605.553 51.696 606.535 51.696V53.936L595.975 54.704L595.271 47.024H595.015C593.393 49.6693 591.516 51.6107 589.383 52.848C587.292 54.0427 585.095 54.64 582.791 54.64C580.999 54.64 579.249 54.2987 577.543 53.616C575.879 52.9333 574.62 52.016 573.767 50.864C573.041 49.9253 572.508 48.624 572.167 46.96C571.868 45.296 571.719 43.1413 571.719 40.496V30.32C571.719 28.5707 571.676 27.2053 571.591 26.224C571.505 25.2 571.271 24.432 570.887 23.92C570.545 23.3653 570.012 23.0027 569.286 22.832C568.604 22.6187 567.644 22.448 566.407 22.32V20.08H577.991V37.552C577.991 42.2027 578.524 45.5733 579.591 47.664C580.7 49.7547 582.449 50.8 584.839 50.8C588.593 50.8 591.516 48.3467 593.607 43.44C593.82 42.928 593.991 42.4587 594.119 42.032C594.247 41.6053 594.353 41.136 594.439 40.624C594.524 40.112 594.588 39.536 594.631 38.896C594.673 38.256 594.695 37.488 594.695 36.592V30.32ZM640.322 48.688C638.786 50.5653 636.802 52.0373 634.37 53.104C631.938 54.128 629.314 54.64 626.498 54.64C624.236 54.64 622.146 54.2347 620.226 53.424C618.348 52.5707 616.727 51.3973 615.362 49.904C613.996 48.368 612.93 46.5333 612.161 44.4C611.436 42.2667 611.074 39.8987 611.074 37.296C611.074 34.5653 611.5 32.112 612.354 29.936C613.207 27.7173 614.402 25.84 615.938 24.304C617.516 22.7253 619.394 21.5307 621.57 20.72C623.788 19.8667 626.22 19.44 628.866 19.44C630.53 19.44 632.044 19.5893 633.41 19.888C634.775 20.144 635.948 20.528 636.93 21.04C637.954 21.5093 638.743 22.1067 639.298 22.832C639.852 23.5147 640.13 24.2613 640.13 25.072C640.13 25.9253 639.852 26.5867 639.298 27.056C638.743 27.5253 637.975 27.76 636.994 27.76C636.226 27.76 635.586 27.6107 635.074 27.312C634.562 26.9707 633.9 26.2453 633.09 25.136C632.236 24.1547 631.404 23.472 630.594 23.088C629.826 22.6613 628.823 22.448 627.586 22.448C624.556 22.448 622.252 23.6213 620.674 25.968C619.138 28.3147 618.37 31.7707 618.37 36.336C618.37 41.2427 619.223 44.976 620.93 47.536C622.679 50.0533 625.218 51.312 628.546 51.312C630.338 51.312 632.023 50.9707 633.602 50.288C635.18 49.5627 636.78 48.4107 638.402 46.832L640.322 48.688ZM644.81 24.112V21.744C647.071 20.4213 648.842 19.0987 650.122 17.776C651.402 16.4533 652.383 14.8747 653.066 13.04H654.922V21.104H663.498V24.112H654.922V43.568C654.922 45.0613 654.986 46.32 655.114 47.344C655.285 48.368 655.541 49.2 655.882 49.84C656.223 50.4373 656.671 50.864 657.226 51.12C657.781 51.376 658.485 51.504 659.338 51.504C660.405 51.504 661.301 51.2907 662.026 50.864C662.794 50.3947 663.541 49.6267 664.266 48.56L665.866 49.776C665.269 51.3547 664.223 52.5707 662.73 53.424C661.279 54.2347 659.466 54.64 657.29 54.64C654.474 54.64 652.319 53.9787 650.826 52.656C649.375 51.2907 648.65 49.3493 648.65 46.832V24.112H644.81ZM671.942 54H670.534V42.992H672.134C673.798 49.008 676.827 52.016 681.222 52.016C682.928 52.016 684.272 51.6107 685.253 50.8C686.278 49.9467 686.79 48.6667 686.79 46.96C686.79 46.32 686.683 45.7867 686.47 45.36C686.299 44.8907 685.936 44.4213 685.382 43.952C684.87 43.44 684.123 42.864 683.142 42.224C682.203 41.584 680.944 40.7733 679.366 39.792C677.915 38.896 676.656 38.064 675.59 37.296C674.523 36.528 673.627 35.76 672.902 34.992C672.176 34.1813 671.622 33.328 671.238 32.432C670.896 31.536 670.726 30.4907 670.726 29.296C670.726 27.8453 670.96 26.5227 671.43 25.328C671.942 24.0907 672.624 23.0453 673.478 22.192C674.331 21.3387 675.334 20.6773 676.486 20.208C677.638 19.696 678.896 19.44 680.262 19.44C681.414 19.44 682.608 19.632 683.846 20.016C685.083 20.3573 686.171 20.8267 687.11 21.424L688.39 20.08H689.606V29.296H687.942C687.003 26.6933 685.979 24.8373 684.87 23.728C683.76 22.6187 682.395 22.064 680.774 22.064C679.323 22.064 678.15 22.448 677.254 23.216C676.4 23.984 675.974 25.0507 675.974 26.416C675.974 27.1413 676.08 27.7813 676.294 28.336C676.55 28.848 676.934 29.36 677.446 29.872C677.958 30.384 678.598 30.9173 679.366 31.472C680.176 31.984 681.136 32.5813 682.246 33.264C684.08 34.416 685.638 35.44 686.918 36.336C688.24 37.232 689.307 38.128 690.118 39.024C690.928 39.8773 691.526 40.7733 691.91 41.712C692.294 42.6507 692.486 43.7173 692.486 44.912C692.486 47.9413 691.504 50.3307 689.542 52.08C687.579 53.7867 684.998 54.64 681.798 54.64C678.47 54.64 675.611 53.68 673.222 51.76L671.942 54ZM736.083 24.688C738.131 23.1093 739.624 21.5093 740.563 19.888C741.502 18.224 741.971 16.432 741.971 14.512C741.971 12.5067 741.523 10.928 740.627 9.776C739.731 8.58133 738.536 7.984 737.043 7.984C734.227 7.984 732.819 10.1387 732.819 14.448C732.819 16.3253 733.096 18.1387 733.651 19.888C734.206 21.5947 735.016 23.1947 736.083 24.688ZM732.435 30.704C729.747 32.24 727.656 34.0533 726.163 36.144C724.67 38.192 723.923 40.3253 723.923 42.544C723.923 44.8907 724.67 46.832 726.163 48.368C727.699 49.8613 729.662 50.608 732.051 50.608C733.843 50.608 735.763 50.16 737.811 49.264C739.859 48.368 741.8 47.1093 743.635 45.488L732.435 30.704ZM748.243 40.624C749.267 39.344 750.206 38.1067 751.059 36.912C751.955 35.6747 752.723 34.5227 753.363 33.456C754.003 32.3467 754.494 31.344 754.835 30.448C755.176 29.552 755.347 28.8267 755.347 28.272C755.347 27.5893 755.027 27.0987 754.387 26.8C753.79 26.5013 752.808 26.352 751.443 26.352V24.112H766.163V26.352C765.224 26.352 764.414 26.416 763.731 26.544C763.091 26.6293 762.515 26.8 762.003 27.056C761.491 27.312 761 27.6533 760.531 28.08C760.104 28.5067 759.678 29.0613 759.251 29.744L750.163 43.056C751.955 45.488 753.811 47.344 755.731 48.624C757.694 49.8613 759.635 50.48 761.555 50.48C762.11 50.48 762.6 50.4373 763.027 50.352C763.454 50.224 763.838 50.032 764.179 49.776C764.563 49.4773 764.904 49.0933 765.203 48.624C765.544 48.1547 765.886 47.5573 766.227 46.832L767.827 47.28C767.358 49.6693 766.312 51.504 764.691 52.784C763.07 54.0213 760.958 54.64 758.355 54.64C757.288 54.64 756.264 54.512 755.283 54.256C754.344 54.0427 753.384 53.6587 752.403 53.104C751.422 52.5493 750.376 51.824 749.267 50.928C748.158 50.032 746.942 48.9227 745.619 47.6C743.486 49.8187 741.011 51.5467 738.195 52.784C735.422 54.0213 732.584 54.64 729.683 54.64C727.72 54.64 725.907 54.3627 724.243 53.808C722.622 53.2107 721.214 52.4213 720.019 51.44C718.824 50.416 717.886 49.2213 717.203 47.856C716.52 46.448 716.179 44.9333 716.179 43.312C716.179 40.4107 717.331 37.744 719.635 35.312C721.939 32.8373 725.63 30.3627 730.707 27.888C729.342 25.8827 728.339 24.0053 727.699 22.256C727.102 20.5067 726.803 18.672 726.803 16.752C726.803 14.8747 727.059 13.168 727.571 11.632C728.126 10.0533 728.894 8.70933 729.875 7.6C730.856 6.49066 732.03 5.63733 733.395 5.04C734.76 4.4 736.275 4.08 737.939 4.08C739.39 4.08 740.712 4.31466 741.907 4.784C743.144 5.25333 744.211 5.91467 745.107 6.768C746.003 7.62133 746.686 8.624 747.155 9.776C747.667 10.928 747.923 12.208 747.923 13.616C747.923 16.0053 747.134 18.2453 745.555 20.336C744.019 22.4267 741.459 24.688 737.875 27.12L748.243 40.624ZM805.974 40.24C807.766 40.24 809.152 39.4293 810.134 37.808C811.158 36.1867 811.67 33.904 811.67 30.96C811.67 28.0587 811.158 25.8187 810.134 24.24C809.152 22.6187 807.744 21.808 805.91 21.808C804.075 21.808 802.603 22.6187 801.494 24.24C800.427 25.8613 799.894 28.08 799.894 30.896C799.894 33.712 800.448 35.9733 801.558 37.68C802.667 39.3867 804.139 40.24 805.974 40.24ZM802.454 47.728C803.478 47.8133 804.416 47.8987 805.27 47.984C806.123 48.0693 806.955 48.1547 807.766 48.24C808.619 48.3253 809.451 48.432 810.262 48.56C811.115 48.688 812.032 48.816 813.014 48.944C816.086 49.4133 818.539 50.608 820.374 52.528C822.251 54.4053 823.19 56.7733 823.19 59.632C823.19 63.216 821.76 65.9467 818.902 67.824C816.086 69.7013 811.99 70.64 806.614 70.64C804.224 70.64 802.027 70.4267 800.022 70C798.059 69.5733 796.374 68.9547 794.966 68.144C793.558 67.376 792.448 66.4373 791.638 65.328C790.87 64.2187 790.486 63.0027 790.486 61.68C790.486 60.784 790.635 59.952 790.934 59.184C791.232 58.416 791.638 57.7333 792.15 57.136C792.662 56.5813 793.259 56.1333 793.942 55.792C794.667 55.4507 795.414 55.28 796.182 55.28C797.632 55.28 798.934 55.728 800.086 56.624C798.934 56.88 797.995 57.4987 797.27 58.48C796.544 59.504 796.182 60.656 796.182 61.936C796.182 63.8133 797.099 65.264 798.934 66.288C800.811 67.312 803.456 67.824 806.87 67.824C814.166 67.824 817.814 65.584 817.814 61.104C817.814 59.3973 817.238 57.968 816.086 56.816C814.934 55.7067 813.568 55.0453 811.99 54.832C810.966 54.704 809.899 54.5547 808.79 54.384C807.723 54.256 806.656 54.128 805.59 54C804.566 53.872 803.606 53.7653 802.71 53.68C801.814 53.5947 801.088 53.5093 800.534 53.424C798.144 53.168 796.331 52.528 795.094 51.504C793.856 50.48 793.238 49.072 793.238 47.28C793.238 45.7867 793.856 44.464 795.094 43.312C796.331 42.16 797.888 41.4347 799.766 41.136V40.88C798.827 40.496 797.952 39.9627 797.142 39.28C796.331 38.5547 795.627 37.744 795.03 36.848C794.475 35.952 794.027 34.992 793.686 33.968C793.344 32.9013 793.174 31.8133 793.174 30.704C793.174 29.0827 793.472 27.5893 794.07 26.224C794.71 24.8587 795.584 23.6853 796.694 22.704C797.846 21.68 799.19 20.8907 800.726 20.336C802.262 19.7387 803.947 19.44 805.782 19.44C807.659 19.44 809.43 19.7387 811.094 20.336C812.758 20.8907 814.187 21.7227 815.382 22.832C816.832 21.6373 818.112 20.784 819.222 20.272C820.331 19.7173 821.376 19.44 822.358 19.44C823.894 19.44 825.11 19.8027 826.006 20.528C826.944 21.2107 827.414 22.1493 827.414 23.344C827.414 24.0693 827.158 24.6453 826.646 25.072C826.176 25.4987 825.579 25.712 824.854 25.712C824.256 25.712 823.766 25.6053 823.382 25.392C822.998 25.1787 822.635 24.9653 822.294 24.752C821.995 24.496 821.675 24.2613 821.333 24.048C820.992 23.8347 820.566 23.728 820.054 23.728C819.03 23.728 817.984 24.0907 816.918 24.816C817.942 26.3947 818.454 28.3787 818.454 30.768C818.454 34.3947 817.323 37.2533 815.062 39.344C812.8 41.392 809.408 42.5867 804.885 42.928C802.283 43.1413 800.47 43.4187 799.446 43.76C798.422 44.1013 797.91 44.72 797.91 45.616C797.91 46.2987 798.294 46.8107 799.062 47.152C799.83 47.4507 800.96 47.6427 802.454 47.728ZM840.958 43.824C840.958 45.5733 841.001 46.96 841.086 47.984C841.171 49.008 841.385 49.7973 841.726 50.352C842.11 50.864 842.643 51.2053 843.326 51.376C844.009 51.5467 844.969 51.6747 846.206 51.76V54H829.182V51.76C830.419 51.7173 831.401 51.6107 832.126 51.44C832.851 51.2267 833.406 50.864 833.79 50.352C834.174 49.84 834.409 49.1147 834.494 48.176C834.622 47.1947 834.686 45.8933 834.686 44.272V36.784C834.686 33.8827 834.643 31.6213 834.558 30C834.515 28.3787 834.302 27.184 833.918 26.416C833.577 25.648 833.022 25.2 832.254 25.072C831.486 24.9013 830.419 24.816 829.054 24.816V22.576L840.254 20.144L841.15 28.08H841.406C841.961 26.8 842.643 25.6267 843.454 24.56C844.307 23.4933 845.225 22.5973 846.206 21.872C847.187 21.104 848.211 20.5067 849.278 20.08C850.345 19.6533 851.433 19.44 852.542 19.44C853.907 19.44 854.974 19.7813 855.742 20.464C856.553 21.104 856.958 21.9787 856.958 23.088C856.958 24.112 856.638 24.9227 855.998 25.52C855.358 26.0747 854.441 26.352 853.246 26.352C852.563 26.352 851.987 26.2667 851.518 26.096C851.049 25.9253 850.622 25.7547 850.238 25.584C849.897 25.3707 849.555 25.1787 849.214 25.008C848.915 24.8373 848.574 24.752 848.19 24.752C847.038 24.752 845.886 25.4987 844.734 26.992C843.582 28.4427 842.686 30.2987 842.046 32.56C841.705 33.7973 841.427 35.2053 841.214 36.784C841.043 38.32 840.958 39.9413 840.958 41.648V43.824ZM877.363 19.44C879.795 19.44 882.099 19.888 884.275 20.784C886.451 21.6373 888.349 22.832 889.971 24.368C891.635 25.904 892.936 27.7387 893.875 29.872C894.856 31.9627 895.347 34.2667 895.347 36.784C895.347 39.3867 894.856 41.776 893.875 43.952C892.936 46.128 891.635 48.0053 889.971 49.584C888.349 51.1627 886.451 52.4 884.275 53.296C882.099 54.192 879.795 54.64 877.363 54.64C874.973 54.64 872.691 54.2133 870.515 53.36C868.381 52.464 866.504 51.2267 864.883 49.648C863.261 48.0693 861.981 46.192 861.043 44.016C860.104 41.7973 859.635 39.3867 859.635 36.784C859.635 34.2667 860.104 31.9413 861.043 29.808C861.981 27.6747 863.261 25.84 864.883 24.304C866.504 22.768 868.381 21.5733 870.515 20.72C872.691 19.8667 874.973 19.44 877.363 19.44ZM877.363 22.512C875.784 22.512 874.333 22.8533 873.01 23.536C871.731 24.2187 870.621 25.2 869.683 26.48C868.787 27.7173 868.083 29.232 867.571 31.024C867.101 32.7733 866.867 34.7147 866.867 36.848C866.867 39.0667 867.101 41.072 867.571 42.864C868.083 44.656 868.787 46.192 869.683 47.472C870.621 48.7093 871.731 49.6693 873.01 50.352C874.291 51.0347 875.741 51.376 877.363 51.376C878.984 51.376 880.456 51.0347 881.779 50.352C883.101 49.6693 884.232 48.688 885.171 47.408C886.109 46.128 886.835 44.592 887.347 42.8C887.859 41.008 888.115 39.024 888.115 36.848C888.115 34.7147 887.859 32.7733 887.347 31.024C886.835 29.2747 886.109 27.7813 885.171 26.544C884.232 25.264 883.101 24.2827 881.779 23.6C880.456 22.8747 878.984 22.512 877.363 22.512ZM930.822 48.688C929.286 50.5653 927.302 52.0373 924.87 53.104C922.438 54.128 919.814 54.64 916.998 54.64C914.736 54.64 912.646 54.2347 910.726 53.424C908.848 52.5707 907.227 51.3973 905.862 49.904C904.496 48.368 903.43 46.5333 902.661 44.4C901.936 42.2667 901.574 39.8987 901.574 37.296C901.574 34.5653 902 32.112 902.854 29.936C903.707 27.7173 904.902 25.84 906.438 24.304C908.016 22.7253 909.894 21.5307 912.07 20.72C914.288 19.8667 916.72 19.44 919.366 19.44C921.03 19.44 922.544 19.5893 923.91 19.888C925.275 20.144 926.448 20.528 927.43 21.04C928.454 21.5093 929.243 22.1067 929.798 22.832C930.352 23.5147 930.63 24.2613 930.63 25.072C930.63 25.9253 930.352 26.5867 929.798 27.056C929.243 27.5253 928.475 27.76 927.494 27.76C926.726 27.76 926.086 27.6107 925.574 27.312C925.062 26.9707 924.4 26.2453 923.59 25.136C922.736 24.1547 921.904 23.472 921.094 23.088C920.326 22.6613 919.323 22.448 918.086 22.448C915.056 22.448 912.752 23.6213 911.174 25.968C909.638 28.3147 908.87 31.7707 908.87 36.336C908.87 41.2427 909.723 44.976 911.43 47.536C913.179 50.0533 915.718 51.312 919.046 51.312C920.838 51.312 922.523 50.9707 924.102 50.288C925.68 49.5627 927.28 48.4107 928.902 46.832L930.822 48.688ZM966.158 48.048C962.531 52.4427 958.03 54.64 952.654 54.64C950.137 54.64 947.854 54.2347 945.806 53.424C943.758 52.5707 941.987 51.3973 940.494 49.904C939.043 48.368 937.913 46.5547 937.102 44.464C936.291 42.3307 935.886 39.984 935.886 37.424C935.886 34.8213 936.313 32.4107 937.166 30.192C938.019 27.9733 939.214 26.0747 940.75 24.496C942.329 22.9173 944.185 21.68 946.318 20.784C948.494 19.888 950.862 19.44 953.422 19.44C957.561 19.44 960.761 20.5707 963.022 22.832C965.283 25.0507 966.414 28.2507 966.414 32.432C966.414 33.0293 966.286 33.392 966.03 33.52C965.817 33.648 965.283 33.712 964.43 33.712H943.374C943.289 34.0533 943.225 34.48 943.182 34.992C943.139 35.4613 943.118 35.9947 943.118 36.592C943.118 38.8107 943.374 40.8373 943.886 42.672C944.441 44.464 945.209 46 946.19 47.28C947.214 48.56 948.409 49.5627 949.774 50.288C951.182 50.9707 952.739 51.312 954.446 51.312C956.238 51.312 957.902 50.928 959.438 50.16C960.974 49.3493 962.553 48.048 964.174 46.256L966.158 48.048ZM955.598 30.768C956.451 30.768 957.134 30.7467 957.646 30.704C958.158 30.6613 958.542 30.576 958.798 30.448C959.054 30.32 959.225 30.1493 959.31 29.936C959.395 29.68 959.438 29.36 959.438 28.976C959.438 27.0133 958.798 25.456 957.518 24.304C956.281 23.1093 954.574 22.512 952.398 22.512C947.79 22.512 944.931 25.264 943.822 30.768H955.598ZM983.646 43.824C983.646 45.5733 983.688 46.96 983.774 47.984C983.859 49.008 984.072 49.7973 984.414 50.352C984.798 50.864 985.331 51.2053 986.014 51.376C986.696 51.5467 987.656 51.6747 988.894 51.76V54H971.87V51.76C973.107 51.7173 974.088 51.6107 974.814 51.44C975.539 51.2267 976.094 50.864 976.478 50.352C976.862 49.84 977.096 49.1147 977.182 48.176C977.31 47.1947 977.374 45.8933 977.374 44.272V36.784C977.374 33.8827 977.331 31.6213 977.246 30C977.203 28.3787 976.99 27.184 976.606 26.416C976.264 25.648 975.71 25.2 974.942 25.072C974.174 24.9013 973.107 24.816 971.742 24.816V22.576L982.942 20.144L983.838 28.08H984.094C984.648 26.8 985.331 25.6267 986.142 24.56C986.995 23.4933 987.912 22.5973 988.894 21.872C989.875 21.104 990.899 20.5067 991.966 20.08C993.032 19.6533 994.12 19.44 995.23 19.44C996.595 19.44 997.662 19.7813 998.43 20.464C999.24 21.104 999.646 21.9787 999.646 23.088C999.646 24.112 999.326 24.9227 998.686 25.52C998.046 26.0747 997.128 26.352 995.934 26.352C995.251 26.352 994.675 26.2667 994.206 26.096C993.736 25.9253 993.31 25.7547 992.926 25.584C992.584 25.3707 992.243 25.1787 991.902 25.008C991.603 24.8373 991.262 24.752 990.878 24.752C989.726 24.752 988.574 25.4987 987.422 26.992C986.27 28.4427 985.374 30.2987 984.734 32.56C984.392 33.7973 984.115 35.2053 983.902 36.784C983.731 38.32 983.646 39.9413 983.646 41.648V43.824ZM1014.53 43.824C1014.53 45.488 1014.59 46.832 1014.72 47.856C1014.89 48.8373 1015.19 49.6267 1015.62 50.224C1016.04 50.7787 1016.64 51.1627 1017.41 51.376C1018.18 51.5893 1019.2 51.7173 1020.48 51.76V54H1002.11V51.76C1003.39 51.7173 1004.44 51.5893 1005.25 51.376C1006.06 51.12 1006.68 50.736 1007.11 50.224C1007.57 49.6693 1007.87 48.9227 1008 47.984C1008.17 47.0027 1008.26 45.7653 1008.26 44.272V36.08C1008.26 33.6053 1008.21 31.5787 1008.13 30C1008.09 28.3787 1007.98 27.2693 1007.81 26.672C1007.6 25.6907 1007.11 25.0293 1006.34 24.688C1005.57 24.304 1004.12 24.112 1001.99 24.112V21.872L1014.53 19.44V43.824ZM1007.17 6.448C1007.17 5.33866 1007.55 4.4 1008.32 3.632C1009.09 2.864 1010.03 2.48 1011.14 2.48C1012.25 2.48 1013.19 2.864 1013.95 3.632C1014.72 4.4 1015.11 5.33866 1015.11 6.448C1015.11 7.55733 1014.72 8.496 1013.95 9.264C1013.19 10.032 1012.25 10.416 1011.14 10.416C1010.03 10.416 1009.09 10.032 1008.32 9.264C1007.55 8.496 1007.17 7.55733 1007.17 6.448ZM1055.16 48.048C1051.53 52.4427 1047.03 54.64 1041.65 54.64C1039.14 54.64 1036.85 54.2347 1034.81 53.424C1032.76 52.5707 1030.99 51.3973 1029.49 49.904C1028.04 48.368 1026.91 46.5547 1026.1 44.464C1025.29 42.3307 1024.89 39.984 1024.89 37.424C1024.89 34.8213 1025.31 32.4107 1026.17 30.192C1027.02 27.9733 1028.21 26.0747 1029.75 24.496C1031.33 22.9173 1033.18 21.68 1035.32 20.784C1037.49 19.888 1039.86 19.44 1042.42 19.44C1046.56 19.44 1049.76 20.5707 1052.02 22.832C1054.28 25.0507 1055.41 28.2507 1055.41 32.432C1055.41 33.0293 1055.29 33.392 1055.03 33.52C1054.82 33.648 1054.28 33.712 1053.43 33.712H1032.37C1032.29 34.0533 1032.22 34.48 1032.18 34.992C1032.14 35.4613 1032.12 35.9947 1032.12 36.592C1032.12 38.8107 1032.37 40.8373 1032.89 42.672C1033.44 44.464 1034.21 46 1035.19 47.28C1036.21 48.56 1037.41 49.5627 1038.77 50.288C1040.18 50.9707 1041.74 51.312 1043.45 51.312C1045.24 51.312 1046.9 50.928 1048.44 50.16C1049.97 49.3493 1051.55 48.048 1053.17 46.256L1055.16 48.048ZM1044.6 30.768C1045.45 30.768 1046.13 30.7467 1046.65 30.704C1047.16 30.6613 1047.54 30.576 1047.8 30.448C1048.05 30.32 1048.22 30.1493 1048.31 29.936C1048.4 29.68 1048.44 29.36 1048.44 28.976C1048.44 27.0133 1047.8 25.456 1046.52 24.304C1045.28 23.1093 1043.57 22.512 1041.4 22.512C1036.79 22.512 1033.93 25.264 1032.82 30.768H1044.6ZM1063.94 54H1062.53V42.992H1064.13C1065.8 49.008 1068.83 52.016 1073.22 52.016C1074.93 52.016 1076.27 51.6107 1077.25 50.8C1078.28 49.9467 1078.79 48.6667 1078.79 46.96C1078.79 46.32 1078.68 45.7867 1078.47 45.36C1078.3 44.8907 1077.94 44.4213 1077.38 43.952C1076.87 43.44 1076.12 42.864 1075.14 42.224C1074.2 41.584 1072.94 40.7733 1071.37 39.792C1069.91 38.896 1068.66 38.064 1067.59 37.296C1066.52 36.528 1065.63 35.76 1064.9 34.992C1064.18 34.1813 1063.62 33.328 1063.24 32.432C1062.9 31.536 1062.73 30.4907 1062.73 29.296C1062.73 27.8453 1062.96 26.5227 1063.43 25.328C1063.94 24.0907 1064.62 23.0453 1065.48 22.192C1066.33 21.3387 1067.33 20.6773 1068.49 20.208C1069.64 19.696 1070.9 19.44 1072.26 19.44C1073.41 19.44 1074.61 19.632 1075.85 20.016C1077.08 20.3573 1078.17 20.8267 1079.11 21.424L1080.39 20.08H1081.61V29.296H1079.94C1079 26.6933 1077.98 24.8373 1076.87 23.728C1075.76 22.6187 1074.39 22.064 1072.77 22.064C1071.32 22.064 1070.15 22.448 1069.25 23.216C1068.4 23.984 1067.97 25.0507 1067.97 26.416C1067.97 27.1413 1068.08 27.7813 1068.29 28.336C1068.55 28.848 1068.93 29.36 1069.45 29.872C1069.96 30.384 1070.6 30.9173 1071.37 31.472C1072.18 31.984 1073.14 32.5813 1074.25 33.264C1076.08 34.416 1077.64 35.44 1078.92 36.336C1080.24 37.232 1081.31 38.128 1082.12 39.024C1082.93 39.8773 1083.53 40.7733 1083.91 41.712C1084.29 42.6507 1084.49 43.7173 1084.49 44.912C1084.49 47.9413 1083.5 50.3307 1081.54 52.08C1079.58 53.7867 1077 54.64 1073.8 54.64C1070.47 54.64 1067.61 53.68 1065.22 51.76L1063.94 54ZM1091.79 50.48C1091.79 49.2853 1092.19 48.2827 1093 47.472C1093.81 46.6613 1094.8 46.256 1095.95 46.256C1097.14 46.256 1098.15 46.6613 1098.96 47.472C1099.77 48.2827 1100.17 49.2853 1100.17 50.48C1100.17 51.632 1099.77 52.6133 1098.96 53.424C1098.15 54.2347 1097.14 54.64 1095.95 54.64C1094.8 54.64 1093.81 54.2347 1093 53.424C1092.19 52.6133 1091.79 51.632 1091.79 50.48ZM1125.24 54V51.568C1126.87 51.5253 1128.17 51.4187 1129.15 51.248C1130.17 51.0347 1130.96 50.672 1131.52 50.16C1132.07 49.6053 1132.43 48.88 1132.6 47.984C1132.82 47.0453 1132.92 45.808 1132.92 44.272V14.448C1132.92 12.9547 1132.84 11.76 1132.67 10.864C1132.54 9.92533 1132.24 9.2 1131.77 8.688C1131.35 8.13333 1130.71 7.77067 1129.85 7.6C1129 7.38667 1127.89 7.23733 1126.52 7.152V4.72H1148.99C1152.83 4.72 1156.37 5.36 1159.61 6.64C1162.9 7.92 1165.71 9.69066 1168.06 11.952C1170.45 14.2133 1172.31 16.9013 1173.63 20.016C1174.95 23.1307 1175.61 26.5227 1175.61 30.192C1175.61 33.6907 1174.99 36.912 1173.76 39.856C1172.52 42.7573 1170.77 45.2533 1168.51 47.344C1166.29 49.4347 1163.62 51.0773 1160.51 52.272C1157.39 53.424 1153.98 54 1150.27 54H1125.24ZM1140.73 7.856C1140.01 7.856 1139.64 8.21866 1139.64 8.944V43.568C1139.64 48.432 1142.82 50.864 1149.18 50.864C1155.03 50.864 1159.51 49.136 1162.62 45.68C1165.74 42.1813 1167.29 37.0613 1167.29 30.32C1167.29 26.7787 1166.87 23.6213 1166.01 20.848C1165.16 18.0747 1163.92 15.728 1162.3 13.808C1160.72 11.888 1158.8 10.416 1156.54 9.392C1154.28 8.368 1151.72 7.856 1148.86 7.856H1140.73ZM1201.27 35.056C1198.84 35.9947 1196.77 36.912 1195.07 37.808C1193.4 38.704 1192.06 39.6 1191.03 40.496C1190.01 41.392 1189.26 42.288 1188.79 43.184C1188.37 44.08 1188.15 44.9973 1188.15 45.936C1188.15 47.344 1188.62 48.496 1189.56 49.392C1190.5 50.288 1191.74 50.736 1193.27 50.736C1194.38 50.736 1195.41 50.4587 1196.35 49.904C1197.33 49.3493 1198.18 48.6027 1198.91 47.664C1199.63 46.6827 1200.21 45.552 1200.63 44.272C1201.06 42.9493 1201.27 41.5627 1201.27 40.112V35.056ZM1201.27 32.304V29.68C1201.27 24.4747 1199.05 21.872 1194.62 21.872C1193.89 21.872 1193.27 21.936 1192.76 22.064C1192.25 22.192 1191.82 22.4053 1191.48 22.704C1191.14 23.0027 1190.82 23.4293 1190.52 23.984C1190.27 24.5387 1190.01 25.2213 1189.75 26.032C1189.28 27.2693 1188.81 28.1013 1188.35 28.528C1187.92 28.912 1187.28 29.104 1186.43 29.104C1184.29 29.104 1183.23 28.0373 1183.23 25.904C1183.23 23.856 1184.31 22.2773 1186.49 21.168C1188.67 20.016 1191.76 19.44 1195.77 19.44C1200.04 19.44 1203.07 20.208 1204.86 21.744C1206.65 23.2373 1207.55 25.7973 1207.55 29.424V43.76C1207.55 48.624 1208.51 51.056 1210.43 51.056C1211.02 51.056 1211.6 50.992 1212.15 50.864C1212.71 50.6933 1213.18 50.288 1213.56 49.648L1214.46 51.184C1213.95 52.1653 1213.01 52.9973 1211.64 53.68C1210.28 54.32 1208.85 54.64 1207.35 54.64C1205.48 54.64 1204.07 54.0427 1203.13 52.848C1202.23 51.6533 1201.79 49.968 1201.79 47.792H1201.47C1200.36 49.8827 1198.82 51.5467 1196.86 52.784C1194.89 53.9787 1192.72 54.576 1190.33 54.576C1187.64 54.576 1185.53 53.8933 1183.99 52.528C1182.46 51.1627 1181.69 49.328 1181.69 47.024C1181.69 46 1181.86 45.0187 1182.2 44.08C1182.59 43.1413 1183.18 42.2453 1183.99 41.392C1184.8 40.5387 1185.87 39.7067 1187.19 38.896C1188.52 38.0427 1190.14 37.1893 1192.06 36.336L1201.27 32.304ZM1228.97 43.824C1228.97 45.488 1229.03 46.832 1229.16 47.856C1229.33 48.8373 1229.63 49.6267 1230.06 50.224C1230.48 50.7787 1231.08 51.1627 1231.85 51.376C1232.62 51.5893 1233.64 51.7173 1234.92 51.76V54H1216.55V51.76C1217.83 51.7173 1218.88 51.5893 1219.69 51.376C1220.5 51.12 1221.12 50.736 1221.54 50.224C1222.01 49.6693 1222.31 48.9227 1222.44 47.984C1222.61 47.0027 1222.7 45.7653 1222.7 44.272V36.08C1222.7 33.6053 1222.65 31.5787 1222.57 30C1222.52 28.3787 1222.42 27.2693 1222.25 26.672C1222.03 25.6907 1221.54 25.0293 1220.78 24.688C1220.01 24.304 1218.56 24.112 1216.42 24.112V21.872L1228.97 19.44V43.824ZM1221.61 6.448C1221.61 5.33866 1221.99 4.4 1222.76 3.632C1223.53 2.864 1224.47 2.48 1225.58 2.48C1226.68 2.48 1227.62 2.864 1228.39 3.632C1229.16 4.4 1229.54 5.33866 1229.54 6.448C1229.54 7.55733 1229.16 8.496 1228.39 9.264C1227.62 10.032 1226.68 10.416 1225.58 10.416C1224.47 10.416 1223.53 10.032 1222.76 9.264C1221.99 8.496 1221.61 7.55733 1221.61 6.448ZM1249.56 44.016C1249.56 45.6373 1249.63 46.9387 1249.76 47.92C1249.88 48.9013 1250.14 49.6693 1250.52 50.224C1250.95 50.7787 1251.53 51.1627 1252.25 51.376C1253.02 51.5893 1254.02 51.7173 1255.26 51.76V54H1237.6V51.76C1238.88 51.7173 1239.9 51.5893 1240.67 51.376C1241.44 51.12 1242.03 50.736 1242.46 50.224C1242.93 49.712 1243.23 49.008 1243.36 48.112C1243.53 47.1733 1243.61 45.9573 1243.61 44.464V16.88C1243.61 14.576 1243.57 12.656 1243.48 11.12C1243.44 9.54133 1243.36 8.47467 1243.23 7.92C1243.01 6.93866 1242.5 6.27733 1241.69 5.936C1240.92 5.59466 1239.52 5.424 1237.47 5.424V3.248L1249.56 0.879997V44.016ZM1274.61 64.048C1272.65 68.4427 1269.6 70.64 1265.46 70.64C1262.77 70.64 1261.43 69.6373 1261.43 67.632C1261.43 66.5653 1261.79 65.776 1262.51 65.264C1263.28 64.7947 1264.67 64.3893 1266.67 64.048C1267.57 63.92 1268.34 63.728 1268.98 63.472C1269.62 63.2587 1270.19 62.96 1270.71 62.576C1271.22 62.2347 1271.67 61.7867 1272.05 61.232C1272.48 60.6773 1272.88 59.9947 1273.27 59.184L1275.51 54.704L1263.22 28.016C1262.66 26.8213 1262.17 25.8827 1261.75 25.2C1261.36 24.4747 1260.93 23.92 1260.47 23.536C1260.04 23.1093 1259.55 22.832 1258.99 22.704C1258.44 22.5333 1257.73 22.4053 1256.88 22.32V20.08H1273.84V22.32C1270.98 22.32 1269.55 23.024 1269.55 24.432C1269.55 24.9867 1269.72 25.8613 1270.07 27.056C1270.41 28.2507 1270.83 29.4667 1271.35 30.704L1278.39 47.728H1278.71L1284.53 33.328C1285.08 31.92 1285.53 30.768 1285.87 29.872C1286.26 28.976 1286.53 28.2507 1286.71 27.696C1286.92 27.0987 1287.05 26.608 1287.09 26.224C1287.17 25.84 1287.22 25.4773 1287.22 25.136C1287.22 24.0267 1286.9 23.28 1286.26 22.896C1285.66 22.512 1284.49 22.32 1282.74 22.32V20.08H1296.82V22.32C1296.01 22.32 1295.32 22.4267 1294.77 22.64C1294.21 22.8533 1293.64 23.344 1293.04 24.112C1292.49 24.8373 1291.85 25.904 1291.12 27.312C1290.44 28.72 1289.59 30.6187 1288.56 33.008L1274.61 64.048ZM1319.44 54H1318.03V42.992H1319.63C1321.3 49.008 1324.33 52.016 1328.72 52.016C1330.43 52.016 1331.77 51.6107 1332.75 50.8C1333.78 49.9467 1334.29 48.6667 1334.29 46.96C1334.29 46.32 1334.18 45.7867 1333.97 45.36C1333.8 44.8907 1333.44 44.4213 1332.88 43.952C1332.37 43.44 1331.62 42.864 1330.64 42.224C1329.7 41.584 1328.44 40.7733 1326.87 39.792C1325.41 38.896 1324.16 38.064 1323.09 37.296C1322.02 36.528 1321.13 35.76 1320.4 34.992C1319.68 34.1813 1319.12 33.328 1318.74 32.432C1318.4 31.536 1318.23 30.4907 1318.23 29.296C1318.23 27.8453 1318.46 26.5227 1318.93 25.328C1319.44 24.0907 1320.12 23.0453 1320.98 22.192C1321.83 21.3387 1322.83 20.6773 1323.99 20.208C1325.14 19.696 1326.4 19.44 1327.76 19.44C1328.91 19.44 1330.11 19.632 1331.35 20.016C1332.58 20.3573 1333.67 20.8267 1334.61 21.424L1335.89 20.08H1337.11V29.296H1335.44C1334.5 26.6933 1333.48 24.8373 1332.37 23.728C1331.26 22.6187 1329.89 22.064 1328.27 22.064C1326.82 22.064 1325.65 22.448 1324.75 23.216C1323.9 23.984 1323.47 25.0507 1323.47 26.416C1323.47 27.1413 1323.58 27.7813 1323.79 28.336C1324.05 28.848 1324.43 29.36 1324.95 29.872C1325.46 30.384 1326.1 30.9173 1326.87 31.472C1327.68 31.984 1328.64 32.5813 1329.75 33.264C1331.58 34.416 1333.14 35.44 1334.42 36.336C1335.74 37.232 1336.81 38.128 1337.62 39.024C1338.43 39.8773 1339.03 40.7733 1339.41 41.712C1339.79 42.6507 1339.99 43.7173 1339.99 44.912C1339.99 47.9413 1339 50.3307 1337.04 52.08C1335.08 53.7867 1332.5 54.64 1329.3 54.64C1325.97 54.64 1323.11 53.68 1320.72 51.76L1319.44 54ZM1376.41 48.048C1372.78 52.4427 1368.28 54.64 1362.9 54.64C1360.39 54.64 1358.1 54.2347 1356.06 53.424C1354.01 52.5707 1352.24 51.3973 1350.74 49.904C1349.29 48.368 1348.16 46.5547 1347.35 44.464C1346.54 42.3307 1346.14 39.984 1346.14 37.424C1346.14 34.8213 1346.56 32.4107 1347.42 30.192C1348.27 27.9733 1349.46 26.0747 1351 24.496C1352.58 22.9173 1354.43 21.68 1356.57 20.784C1358.74 19.888 1361.11 19.44 1363.67 19.44C1367.81 19.44 1371.01 20.5707 1373.27 22.832C1375.53 25.0507 1376.66 28.2507 1376.66 32.432C1376.66 33.0293 1376.54 33.392 1376.28 33.52C1376.07 33.648 1375.53 33.712 1374.68 33.712H1353.62C1353.54 34.0533 1353.47 34.48 1353.43 34.992C1353.39 35.4613 1353.37 35.9947 1353.37 36.592C1353.37 38.8107 1353.62 40.8373 1354.14 42.672C1354.69 44.464 1355.46 46 1356.44 47.28C1357.46 48.56 1358.66 49.5627 1360.02 50.288C1361.43 50.9707 1362.99 51.312 1364.7 51.312C1366.49 51.312 1368.15 50.928 1369.69 50.16C1371.22 49.3493 1372.8 48.048 1374.42 46.256L1376.41 48.048ZM1365.85 30.768C1366.7 30.768 1367.38 30.7467 1367.9 30.704C1368.41 30.6613 1368.79 30.576 1369.05 30.448C1369.3 30.32 1369.47 30.1493 1369.56 29.936C1369.65 29.68 1369.69 29.36 1369.69 28.976C1369.69 27.0133 1369.05 25.456 1367.77 24.304C1366.53 23.1093 1364.82 22.512 1362.65 22.512C1358.04 22.512 1355.18 25.264 1354.07 30.768H1365.85ZM1393.9 43.824C1393.9 45.5733 1393.94 46.96 1394.02 47.984C1394.11 49.008 1394.32 49.7973 1394.66 50.352C1395.05 50.864 1395.58 51.2053 1396.26 51.376C1396.95 51.5467 1397.91 51.6747 1399.14 51.76V54H1382.12V51.76C1383.36 51.7173 1384.34 51.6107 1385.06 51.44C1385.79 51.2267 1386.34 50.864 1386.73 50.352C1387.11 49.84 1387.35 49.1147 1387.43 48.176C1387.56 47.1947 1387.62 45.8933 1387.62 44.272V36.784C1387.62 33.8827 1387.58 31.6213 1387.5 30C1387.45 28.3787 1387.24 27.184 1386.86 26.416C1386.51 25.648 1385.96 25.2 1385.19 25.072C1384.42 24.9013 1383.36 24.816 1381.99 24.816V22.576L1393.19 20.144L1394.09 28.08H1394.34C1394.9 26.8 1395.58 25.6267 1396.39 24.56C1397.24 23.4933 1398.16 22.5973 1399.14 21.872C1400.12 21.104 1401.15 20.5067 1402.22 20.08C1403.28 19.6533 1404.37 19.44 1405.48 19.44C1406.84 19.44 1407.91 19.7813 1408.68 20.464C1409.49 21.104 1409.9 21.9787 1409.9 23.088C1409.9 24.112 1409.58 24.9227 1408.94 25.52C1408.3 26.0747 1407.38 26.352 1406.18 26.352C1405.5 26.352 1404.92 26.2667 1404.46 26.096C1403.99 25.9253 1403.56 25.7547 1403.18 25.584C1402.83 25.3707 1402.49 25.1787 1402.15 25.008C1401.85 24.8373 1401.51 24.752 1401.13 24.752C1399.98 24.752 1398.82 25.4987 1397.67 26.992C1396.52 28.4427 1395.62 30.2987 1394.98 32.56C1394.64 33.7973 1394.36 35.2053 1394.15 36.784C1393.98 38.32 1393.9 39.9413 1393.9 41.648V43.824ZM1416.84 28.016C1416.33 26.736 1415.86 25.7333 1415.44 25.008C1415.05 24.24 1414.62 23.664 1414.16 23.28C1413.69 22.896 1413.15 22.6613 1412.56 22.576C1412 22.448 1411.32 22.3627 1410.51 22.32V20.08H1427.47V22.32C1426.61 22.3627 1425.91 22.4053 1425.36 22.448C1424.8 22.4907 1424.35 22.5973 1424.01 22.768C1423.71 22.896 1423.5 23.1093 1423.37 23.408C1423.24 23.664 1423.18 24.048 1423.18 24.56C1423.18 25.2853 1423.26 25.968 1423.44 26.608C1423.65 27.248 1423.86 27.888 1424.08 28.528L1430.86 47.088H1431.12L1436.94 33.328C1437.84 31.1947 1438.48 29.488 1438.86 28.208C1439.24 26.928 1439.44 25.7973 1439.44 24.816C1439.44 23.8347 1439.18 23.1733 1438.67 22.832C1438.16 22.4907 1437.05 22.32 1435.34 22.32V20.08H1448.08V22.32C1447.39 22.32 1446.77 22.4907 1446.22 22.832C1445.66 23.1733 1445.17 23.6 1444.75 24.112C1444.41 24.5813 1444.04 25.2213 1443.66 26.032C1443.32 26.8 1442.96 27.6107 1442.57 28.464C1442.23 29.3173 1441.91 30.1707 1441.61 31.024C1441.31 31.8347 1441.04 32.496 1440.78 33.008L1431.37 54.704H1427.66L1416.84 28.016ZM1463.84 43.824C1463.84 45.488 1463.91 46.832 1464.03 47.856C1464.2 48.8373 1464.5 49.6267 1464.93 50.224C1465.36 50.7787 1465.95 51.1627 1466.72 51.376C1467.49 51.5893 1468.51 51.7173 1469.79 51.76V54H1451.43V51.76C1452.71 51.7173 1453.75 51.5893 1454.56 51.376C1455.37 51.12 1455.99 50.736 1456.42 50.224C1456.89 49.6693 1457.19 48.9227 1457.31 47.984C1457.48 47.0027 1457.57 45.7653 1457.57 44.272V36.08C1457.57 33.6053 1457.53 31.5787 1457.44 30C1457.4 28.3787 1457.29 27.2693 1457.12 26.672C1456.91 25.6907 1456.42 25.0293 1455.65 24.688C1454.88 24.304 1453.43 24.112 1451.3 24.112V21.872L1463.84 19.44V43.824ZM1456.48 6.448C1456.48 5.33866 1456.87 4.4 1457.63 3.632C1458.4 2.864 1459.34 2.48 1460.45 2.48C1461.56 2.48 1462.5 2.864 1463.27 3.632C1464.03 4.4 1464.42 5.33866 1464.42 6.448C1464.42 7.55733 1464.03 8.496 1463.27 9.264C1462.5 10.032 1461.56 10.416 1460.45 10.416C1459.34 10.416 1458.4 10.032 1457.63 9.264C1456.87 8.496 1456.48 7.55733 1456.48 6.448ZM1503.45 48.688C1501.91 50.5653 1499.93 52.0373 1497.49 53.104C1495.06 54.128 1492.44 54.64 1489.62 54.64C1487.36 54.64 1485.27 54.2347 1483.35 53.424C1481.47 52.5707 1479.85 51.3973 1478.49 49.904C1477.12 48.368 1476.05 46.5333 1475.29 44.4C1474.56 42.2667 1474.2 39.8987 1474.2 37.296C1474.2 34.5653 1474.63 32.112 1475.48 29.936C1476.33 27.7173 1477.53 25.84 1479.06 24.304C1480.64 22.7253 1482.52 21.5307 1484.69 20.72C1486.91 19.8667 1489.35 19.44 1491.99 19.44C1493.65 19.44 1495.17 19.5893 1496.53 19.888C1497.9 20.144 1499.07 20.528 1500.05 21.04C1501.08 21.5093 1501.87 22.1067 1502.42 22.832C1502.98 23.5147 1503.25 24.2613 1503.25 25.072C1503.25 25.9253 1502.98 26.5867 1502.42 27.056C1501.87 27.5253 1501.1 27.76 1500.12 27.76C1499.35 27.76 1498.71 27.6107 1498.2 27.312C1497.69 26.9707 1497.03 26.2453 1496.21 25.136C1495.36 24.1547 1494.53 23.472 1493.72 23.088C1492.95 22.6613 1491.95 22.448 1490.71 22.448C1487.68 22.448 1485.38 23.6213 1483.8 25.968C1482.26 28.3147 1481.49 31.7707 1481.49 36.336C1481.49 41.2427 1482.35 44.976 1484.05 47.536C1485.8 50.0533 1488.34 51.312 1491.67 51.312C1493.46 51.312 1495.15 50.9707 1496.73 50.288C1498.31 49.5627 1499.91 48.4107 1501.53 46.832L1503.45 48.688ZM1538.78 48.048C1535.16 52.4427 1530.66 54.64 1525.28 54.64C1522.76 54.64 1520.48 54.2347 1518.43 53.424C1516.38 52.5707 1514.61 51.3973 1513.12 49.904C1511.67 48.368 1510.54 46.5547 1509.73 44.464C1508.92 42.3307 1508.51 39.984 1508.51 37.424C1508.51 34.8213 1508.94 32.4107 1509.79 30.192C1510.64 27.9733 1511.84 26.0747 1513.38 24.496C1514.95 22.9173 1516.81 21.68 1518.94 20.784C1521.12 19.888 1523.49 19.44 1526.05 19.44C1530.19 19.44 1533.39 20.5707 1535.65 22.832C1537.91 25.0507 1539.04 28.2507 1539.04 32.432C1539.04 33.0293 1538.91 33.392 1538.66 33.52C1538.44 33.648 1537.91 33.712 1537.06 33.712H1516C1515.91 34.0533 1515.85 34.48 1515.81 34.992C1515.76 35.4613 1515.74 35.9947 1515.74 36.592C1515.74 38.8107 1516 40.8373 1516.51 42.672C1517.07 44.464 1517.83 46 1518.82 47.28C1519.84 48.56 1521.03 49.5627 1522.4 50.288C1523.81 50.9707 1525.36 51.312 1527.07 51.312C1528.86 51.312 1530.53 50.928 1532.06 50.16C1533.6 49.3493 1535.18 48.048 1536.8 46.256L1538.78 48.048ZM1528.22 30.768C1529.08 30.768 1529.76 30.7467 1530.27 30.704C1530.78 30.6613 1531.17 30.576 1531.42 30.448C1531.68 30.32 1531.85 30.1493 1531.94 29.936C1532.02 29.68 1532.06 29.36 1532.06 28.976C1532.06 27.0133 1531.42 25.456 1530.14 24.304C1528.91 23.1093 1527.2 22.512 1525.02 22.512C1520.42 22.512 1517.56 25.264 1516.45 30.768H1528.22ZM1547.57 54H1546.16V42.992H1547.76C1549.42 49.008 1552.45 52.016 1556.85 52.016C1558.55 52.016 1559.9 51.6107 1560.88 50.8C1561.9 49.9467 1562.41 48.6667 1562.41 46.96C1562.41 46.32 1562.31 45.7867 1562.09 45.36C1561.92 44.8907 1561.56 44.4213 1561.01 43.952C1560.49 43.44 1559.75 42.864 1558.77 42.224C1557.83 41.584 1556.57 40.7733 1554.99 39.792C1553.54 38.896 1552.28 38.064 1551.21 37.296C1550.15 36.528 1549.25 35.76 1548.53 34.992C1547.8 34.1813 1547.25 33.328 1546.86 32.432C1546.52 31.536 1546.35 30.4907 1546.35 29.296C1546.35 27.8453 1546.59 26.5227 1547.05 25.328C1547.57 24.0907 1548.25 23.0453 1549.1 22.192C1549.96 21.3387 1550.96 20.6773 1552.11 20.208C1553.26 19.696 1554.52 19.44 1555.89 19.44C1557.04 19.44 1558.23 19.632 1559.47 20.016C1560.71 20.3573 1561.8 20.8267 1562.73 21.424L1564.01 20.08H1565.23V29.296H1563.57C1562.63 26.6933 1561.6 24.8373 1560.49 23.728C1559.39 22.6187 1558.02 22.064 1556.4 22.064C1554.95 22.064 1553.77 22.448 1552.88 23.216C1552.03 23.984 1551.6 25.0507 1551.6 26.416C1551.6 27.1413 1551.71 27.7813 1551.92 28.336C1552.17 28.848 1552.56 29.36 1553.07 29.872C1553.58 30.384 1554.22 30.9173 1554.99 31.472C1555.8 31.984 1556.76 32.5813 1557.87 33.264C1559.71 34.416 1561.26 35.44 1562.54 36.336C1563.87 37.232 1564.93 38.128 1565.74 39.024C1566.55 39.8773 1567.15 40.7733 1567.53 41.712C1567.92 42.6507 1568.11 43.7173 1568.11 44.912C1568.11 47.9413 1567.13 50.3307 1565.17 52.08C1563.2 53.7867 1560.62 54.64 1557.42 54.64C1554.09 54.64 1551.24 53.68 1548.85 51.76L1547.57 54ZM1576.82 50.48C1576.82 49.2853 1577.23 48.2827 1578.04 47.472C1578.85 46.6613 1579.83 46.256 1580.98 46.256C1582.18 46.256 1583.18 46.6613 1583.99 47.472C1584.8 48.2827 1585.21 49.2853 1585.21 50.48C1585.21 51.632 1584.8 52.6133 1583.99 53.424C1583.18 54.2347 1582.18 54.64 1580.98 54.64C1579.83 54.64 1578.85 54.2347 1578.04 53.424C1577.23 52.6133 1576.82 51.632 1576.82 50.48ZM1579.45 40.752C1579.45 37.3387 1579.4 34.4373 1579.32 32.048C1579.27 29.6587 1579.17 27.568 1579 25.776C1578.87 23.984 1578.7 22.384 1578.49 20.976C1578.27 19.568 1578.04 18.1173 1577.78 16.624C1577.57 15.4293 1577.4 14.448 1577.27 13.68C1577.14 12.8693 1577.03 12.1867 1576.95 11.632C1576.91 11.0347 1576.86 10.5013 1576.82 10.032C1576.82 9.52 1576.82 8.944 1576.82 8.304C1576.82 7.152 1577.18 6.17066 1577.91 5.36C1578.68 4.50666 1579.7 4.08 1580.98 4.08C1582.26 4.08 1583.26 4.50666 1583.99 5.36C1584.76 6.17066 1585.14 7.152 1585.14 8.304C1585.14 8.90133 1585.14 9.456 1585.14 9.968C1585.14 10.4373 1585.1 10.9707 1585.01 11.568C1584.97 12.1653 1584.89 12.8907 1584.76 13.744C1584.63 14.5547 1584.44 15.6 1584.18 16.88C1583.93 18.288 1583.69 19.696 1583.48 21.104C1583.26 22.4693 1583.09 24.048 1582.97 25.84C1582.84 27.5893 1582.73 29.6587 1582.65 32.048C1582.56 34.4373 1582.52 37.3387 1582.52 40.752H1579.45Z" fill="white"/>
</g>
<defs>
<filter id="filter0_d_3_2" x="0.64801" y="0.879997" width="1588.56" height="77.76" filterUnits="userSpaceOnUse" color-interpolation-filters="sRGB">
<feFlood flood-opacity="0" result="BackgroundImageFix"/>
<feColorMatrix in="SourceAlpha" type="matrix" values="0 0 0 0 0 0 0 0 0 0 0 0 0 0 0 0 0 0 127 0" result="hardAlpha"/>
<feOffset dy="4"/>
<feGaussianBlur stdDeviation="2"/>
<feComposite in2="hardAlpha" operator="out"/>
<feColorMatrix type="matrix" values="0 0 0 0 0 0 0 0 0 0 0 0 0 0 0 0 0 0 0.25 0"/>
<feBlend mode="normal" in2="BackgroundImageFix" result="effect1_dropShadow_3_2"/>
<feBlend mode="normal" in="SourceGraphic" in2="effect1_dropShadow_3_2" result="shape"/>
</filter>
</defs>
</svg>
