<svg xmlns="http://www.w3.org/2000/svg" viewBox="0 0 187.61 62.16"><defs><style>.cls-1,.cls-4{fill:#fff;}.cls-1,.cls-3{fill-rule:evenodd;}.cls-2{fill:#ed1c24;}.cls-3{fill:#2e3192;}</style></defs><title>aroma milk</title><g id="Layer_2" data-name="Layer 2"><g id="Layer_1-2" data-name="Layer 1"><g id="_Group_" data-name="&lt;Group&gt;"><g id="_Group_2" data-name="&lt;Group&gt;"><path id="_Path_" data-name="&lt;Path&gt;" class="cls-1" d="M93.8.91c51.31,0,92.9,13.51,92.9,30.17S145.11,61.26,93.8,61.26.91,47.75.91,31.08,42.5.91,93.8.91Z"/></g><g id="_Group_3" data-name="&lt;Group&gt;"><path id="_Compound_Path_" data-name="&lt;Compound Path&gt;" class="cls-2" d="M93.8,62.16c-24.9,0-48.33-3.15-66-8.88C9.89,47.45,0,39.57,0,31.08S9.89,14.71,27.84,8.88C45.47,3.15,68.9,0,93.8,0s48.34,3.15,66,8.88c17.95,5.83,27.84,13.72,27.84,22.2s-9.89,16.37-27.84,22.2C142.14,59,118.71,62.16,93.8,62.16Zm0-60.34c-24.72,0-47.95,3.12-65.4,8.79C11.5,16.1,1.82,23.56,1.82,31.08s9.68,15,26.58,20.48c17.45,5.67,40.68,8.79,65.4,8.79s48-3.12,65.41-8.79c16.89-5.49,26.58-13,26.58-20.48s-9.69-15-26.58-20.47C141.75,4.94,118.52,1.82,93.8,1.82Z"/></g><g id="_Group_4" data-name="&lt;Group&gt;"><path id="_Path_2" data-name="&lt;Path&gt;" class="cls-3" d="M93.8,5.09C142,5.09,181,16.73,181,31.08s-39.05,26-87.22,26S6.59,45.44,6.59,31.08s39-26,87.21-26"/></g><g id="_Group_5" data-name="&lt;Group&gt;"><path id="_Compound_Path_2" data-name="&lt;Compound Path&gt;" class="cls-4" d="M144.82,35.72V30.06a12.35,12.35,0,0,0-3.89,2.75,3,3,0,0,0-.85,2,1.87,1.87,0,0,0,.72,1.47,2.15,2.15,0,0,0,1.51.49,4.58,4.58,0,0,0,2.51-1m0,1.32c-2.47,1.82-4.68,2.73-6.65,2.73a4.36,4.36,0,0,1-2.87-1,3,3,0,0,1-1.15-2.38,4.39,4.39,0,0,1,2-3.48q2-1.55,8.68-4.11v-1.7a6.78,6.78,0,0,0-.25-2.41,2,2,0,0,0-.94-.87,3.22,3.22,0,0,0-1.56-.38,4.6,4.6,0,0,0-2.32.53c-.37.22-.56.47-.56.76a1.53,1.53,0,0,0,.61.94,2.2,2.2,0,0,1,.82,1.5,1.87,1.87,0,0,1-.79,1.51,3.2,3.2,0,0,1-2.06.63,3.79,3.79,0,0,1-2.29-.69,2,2,0,0,1-.92-1.61,3.46,3.46,0,0,1,1.23-2.49,8.29,8.29,0,0,1,3.45-1.82,17,17,0,0,1,4.58-.62,8.76,8.76,0,0,1,4.56,1,5.06,5.06,0,0,1,2.17,2.22,11.66,11.66,0,0,1,.31,3.49v6.56a5.37,5.37,0,0,0,.11,1.46.81.81,0,0,0,.82.58,1.62,1.62,0,0,0,1.15-.66l.64.43a7.16,7.16,0,0,1-2.23,1.94,5.65,5.65,0,0,1-2.64.61,4.69,4.69,0,0,1-2.7-.68A2.91,2.91,0,0,1,144.82,37ZM105.13,22.63v2.22a11.14,11.14,0,0,1,3.08-2.12,7.7,7.7,0,0,1,3.11-.6,6.5,6.5,0,0,1,3.26.75,5,5,0,0,1,2,2.32,12.38,12.38,0,0,1,3.32-2.35,8,8,0,0,1,3.32-.72,6.09,6.09,0,0,1,3.35.8,4.25,4.25,0,0,1,1.73,2,11.77,11.77,0,0,1,.49,4v6.92a4.32,4.32,0,0,0,.42,2.43,2.86,2.86,0,0,0,1.76.61v.65H120.56v-.65a2.48,2.48,0,0,0,1.82-.79,4.15,4.15,0,0,0,.39-2.25V28.58a11.51,11.51,0,0,0-.22-2.88,1.69,1.69,0,0,0-.68-.91,2,2,0,0,0-1.1-.3,3.65,3.65,0,0,0-1.88.57A8,8,0,0,0,117,26.77v9.07a4.46,4.46,0,0,0,.37,2.3,2.42,2.42,0,0,0,1.91.74v.65H108.76v-.65a2.6,2.6,0,0,0,1.33-.35,1.56,1.56,0,0,0,.65-.76,7,7,0,0,0,.16-1.93V28.58a11.47,11.47,0,0,0-.21-2.88,1.79,1.79,0,0,0-.72-.9,2,2,0,0,0-1.1-.32,3.35,3.35,0,0,0-1.58.37,8.09,8.09,0,0,0-2.16,1.92v9.07a4.47,4.47,0,0,0,.42,2.37,2.4,2.4,0,0,0,1.76.67v.65H96.88v-.65a2.71,2.71,0,0,0,1.82-.69,4.36,4.36,0,0,0,.37-2.35V26.3a4.09,4.09,0,0,0-.43-2.39,2.84,2.84,0,0,0-1.76-.61v-.67Zm-20.93.78a2.71,2.71,0,0,0-1.89.7,4.27,4.27,0,0,0-1,2.74,49.25,49.25,0,0,0-.25,5.7,20.6,20.6,0,0,0,.31,3.62,3.3,3.3,0,0,0,1,1.95,2.63,2.63,0,0,0,1.78.67,2.76,2.76,0,0,0,1.62-.45,3,3,0,0,0,1.13-1.72,35.71,35.71,0,0,0,.43-6.94,14.56,14.56,0,0,0-.41-4.22,3.24,3.24,0,0,0-1.21-1.68A2.63,2.63,0,0,0,84.2,23.41Zm-.09-1.28A10.77,10.77,0,0,1,89,23.26a7.85,7.85,0,0,1,3.45,3.24,9.12,9.12,0,0,1,1.18,4.59,8.62,8.62,0,0,1-2.18,6A9.33,9.33,0,0,1,84.17,40a9.1,9.1,0,0,1-7-2.68,8.84,8.84,0,0,1-2.47-6.2,8.93,8.93,0,0,1,9.44-9Zm-20,.5v3.83A13.7,13.7,0,0,1,67.61,23a6,6,0,0,1,2.93-.85,2.83,2.83,0,0,1,1.93.62,2.17,2.17,0,0,1,.73,1.76,2.44,2.44,0,0,1-.71,1.88,2.37,2.37,0,0,1-1.69.67,3.27,3.27,0,0,1-2-.62,10.1,10.1,0,0,0-1-.68,1.15,1.15,0,0,0-.5-.11,2.06,2.06,0,0,0-1.19.39,3.81,3.81,0,0,0-1.34,1.76,10.49,10.49,0,0,0-.69,3.87v3.88l0,1a3.5,3.5,0,0,0,.15,1.31,1.54,1.54,0,0,0,.77.72,5.07,5.07,0,0,0,1.72.28v.65H55.82v-.65a2.58,2.58,0,0,0,1.78-.61,4.76,4.76,0,0,0,.47-2.72V26.21a6.2,6.2,0,0,0-.17-1.85,1.6,1.6,0,0,0-.63-.74,3.79,3.79,0,0,0-1.45-.32v-.67ZM44.69,35.72V30.06a12.35,12.35,0,0,0-3.89,2.75,3,3,0,0,0-.85,2,1.9,1.9,0,0,0,.72,1.47,2.15,2.15,0,0,0,1.51.49A4.56,4.56,0,0,0,44.69,35.72Zm0,1.32c-2.46,1.82-4.68,2.73-6.64,2.73a4.36,4.36,0,0,1-2.88-1A2.94,2.94,0,0,1,34,36.44,4.38,4.38,0,0,1,36,33q2-1.55,8.68-4.11v-1.7a6.78,6.78,0,0,0-.25-2.41,2,2,0,0,0-.93-.87A3.27,3.27,0,0,0,42,23.49a4.58,4.58,0,0,0-2.32.53c-.37.22-.57.47-.57.76a1.53,1.53,0,0,0,.61.94,2.17,2.17,0,0,1,.83,1.5,1.89,1.89,0,0,1-.79,1.51,3.23,3.23,0,0,1-2.07.63,3.74,3.74,0,0,1-2.28-.69,2,2,0,0,1-.93-1.61,3.48,3.48,0,0,1,1.24-2.49,8.18,8.18,0,0,1,3.44-1.82,17,17,0,0,1,4.59-.62,8.78,8.78,0,0,1,4.56,1,5.18,5.18,0,0,1,2.17,2.22,12.15,12.15,0,0,1,.3,3.49v6.56a5.84,5.84,0,0,0,.11,1.46.94.94,0,0,0,.33.44.91.91,0,0,0,.49.14,1.6,1.6,0,0,0,1.15-.66l.65.43a7.3,7.3,0,0,1-2.24,1.94,5.64,5.64,0,0,1-2.63.61,4.72,4.72,0,0,1-2.71-.68A2.94,2.94,0,0,1,44.69,37Z"/></g></g></g></g></svg>